<?xml version="1.0" encoding="UTF-8"?>
<svg version="1.1" xmlns="http://www.w3.org/2000/svg" width="1280" height="720">
<path d="M0 0 C422.4 0 844.8 0 1280 0 C1280 237.6 1280 475.2 1280 720 C857.6 720 435.2 720 0 720 C0 482.4 0 244.8 0 0 Z " fill="#E8F0ED" transform="translate(0,0)"/>
<path d="M0 0 C1.17489487 -0.01007584 2.34978973 -0.02015167 3.56028748 -0.03053284 C7.43506447 -0.05897389 11.30945136 -0.0648876 15.18432617 -0.06811523 C16.52480426 -0.07238887 17.86528079 -0.0771773 19.20575523 -0.08247185 C26.22640199 -0.11018398 33.24687848 -0.12248268 40.26757812 -0.12011719 C46.78947204 -0.1183163 53.31062039 -0.14995356 59.83232576 -0.19734818 C65.45044635 -0.23670652 71.06832456 -0.2526634 76.68658179 -0.25075096 C80.0339821 -0.24998975 83.38019336 -0.26113151 86.7275486 -0.29028511 C90.46612413 -0.31979799 94.20279775 -0.31101009 97.94140625 -0.29296875 C99.58216629 -0.31825653 99.58216629 -0.31825653 101.256073 -0.34405518 C109.9518246 -0.23783578 116.11996996 2.45989609 122.34360981 8.57747555 C128.9434944 15.76491252 129.86271066 21.637789 129.61401367 31.21313477 C129.22315857 36.80470538 127.02200251 40.45307776 123.16479492 44.43579102 C122.31916992 45.16668945 121.47354492 45.89758789 120.60229492 46.65063477 C117.50236277 50.19270468 116.7861214 53.22469002 115.85229492 57.74829102 C115.68407227 58.48885742 115.51584961 59.22942383 115.3425293 59.99243164 C114.9336289 61.80327625 114.5469176 63.61910723 114.16479492 65.43579102 C115.04651367 65.5653418 115.04651367 65.5653418 115.94604492 65.69750977 C118.77674031 66.63941369 119.78988277 67.95152363 121.66479492 70.24829102 C122.27581055 70.9637207 122.88682617 71.67915039 123.51635742 72.41625977 C124.74515709 73.92168495 125.91029886 75.47949653 127.03979492 77.06079102 C129.00939701 78.63873493 129.00939701 78.63873493 131.05541992 78.29516602 C133.45977372 77.77394247 135.79860772 77.10870979 138.16479492 76.43579102 C140.01559695 76.04452271 141.86983253 75.66911 143.72729492 75.31079102 C144.57420898 75.14321289 145.42112305 74.97563477 146.29370117 74.80297852 C146.91116211 74.68180664 147.52862305 74.56063477 148.16479492 74.43579102 C158.27914726 88.20793652 158.27914726 88.20793652 158.07885742 93.86157227 C156.47624566 98.37491052 152.25279914 100.31689641 148.43823242 102.95922852 C145.75490231 105.3106621 145.75490231 105.3106621 146.23120117 108.97875977 C147.10977283 112.23204813 148.14457753 115.10469573 149.54370117 118.15063477 C150.48151729 121.60109029 150.25039109 124.86680297 150.16479492 128.43579102 C150.73512451 128.52143311 151.3054541 128.6070752 151.89306641 128.6953125 C154.46347308 129.08371902 157.03287386 129.4784193 159.60229492 129.87329102 C160.94904297 130.07535156 160.94904297 130.07535156 162.32299805 130.28149414 C163.17700195 130.41362305 164.03100586 130.54575195 164.91088867 130.68188477 C165.70164795 130.80233154 166.49240723 130.92277832 167.30712891 131.046875 C169.16479492 131.43579102 169.16479492 131.43579102 170.16479492 132.43579102 C170.25205715 134.21650348 170.27178533 136.00062242 170.26245117 137.78344727 C170.25922852 138.86303711 170.25600586 139.94262695 170.25268555 141.05493164 C170.24430664 142.19124023 170.23592773 143.32754883 170.22729492 144.49829102 C170.2227832 145.6384668 170.21827148 146.77864258 170.21362305 147.95336914 C170.2017924 150.78089453 170.18530902 153.60831742 170.16479492 156.43579102 C165.28351838 157.74100192 160.72337768 158.71588765 155.66479492 159.06079102 C154.10245117 159.17293945 154.10245117 159.17293945 152.50854492 159.28735352 C151.73510742 159.33633789 150.96166992 159.38532227 150.16479492 159.43579102 C150.24729492 160.54954102 150.32979492 161.66329102 150.41479492 162.81079102 C150.43922785 167.39603702 149.00247796 170.90344048 147.13745117 175.04125977 C146.13887913 177.49959173 145.60535988 179.82486396 145.16479492 182.43579102 C145.72553711 182.6768457 146.2862793 182.91790039 146.86401367 183.16625977 C149.64938981 184.70318208 151.68459625 186.54448535 153.97729492 188.74829102 C154.78811523 189.50754883 155.59893555 190.26680664 156.43432617 191.04907227 C158.16479492 193.43579102 158.16479492 193.43579102 158.14135742 195.81079102 C156.92295586 199.08585441 155.40794457 202.05898801 153.72729492 205.12329102 C153.10983398 206.2615332 152.49237305 207.39977539 151.85620117 208.57250977 C150.16479492 211.43579102 150.16479492 211.43579102 148.16479492 213.43579102 C142.83308496 214.25605409 138.57970042 212.22182313 133.75073242 210.21313477 C130.88312736 209.35112055 129.85124076 209.15730173 127.16479492 210.43579102 C124.86111493 212.63223133 124.86111493 212.63223133 122.66479492 215.31079102 C120.01032768 218.42888097 117.54865341 221.1132336 114.16479492 223.43579102 C114.3581543 224.01586914 114.55151367 224.59594727 114.75073242 225.19360352 C115.01112305 225.97477539 115.27151367 226.75594727 115.53979492 227.56079102 C115.81307617 228.3793457 116.08635742 229.19790039 116.36791992 230.04125977 C117.01423879 231.98338459 117.65314599 233.92797484 118.28979492 235.87329102 C119.08339809 238.38482391 119.08339809 238.38482391 120.16479492 240.43579102 C120.24284196 242.66446751 120.30254015 244.89380346 120.35229492 247.12329102 C120.72853546 252.76689904 121.2933012 256.29082934 125.42260742 260.25219727 C128.13881576 262.09751369 130.99260155 262.69938898 134.16479492 263.43579102 C136.30169432 264.63339397 138.1824007 265.98525866 140.16479492 267.43579102 C138.07930963 272.30388156 134.59991004 274.37566249 130.35229492 277.31079102 C129.64008789 277.83415039 128.92788086 278.35750977 128.1940918 278.89672852 C126.21709449 280.27203099 124.37496472 281.47826253 122.16479492 282.43579102 C118.7572359 281.76653323 117.0680252 280.37127787 114.16479492 278.43579102 C113.05104492 278.16766602 111.93729492 277.89954102 110.78979492 277.62329102 C105.55761689 275.90930166 103.15882095 272.92683006 100.16479492 268.43579102 C100.02258427 265.83333604 99.9767656 263.34461418 100.03979492 260.74829102 C100.04881836 260.04639648 100.0578418 259.34450195 100.06713867 258.62133789 C100.09065788 256.89267576 100.1265278 255.16418956 100.16479492 253.43579102 C99.50479492 253.43579102 98.84479492 253.43579102 98.16479492 253.43579102 C96.82056153 251.77790316 95.48861009 250.11002784 94.16479492 248.43579102 C90.87370033 245.37166846 87.48580284 244.51604299 83.16479492 243.43579102 C82.44291992 243.18829102 81.72104492 242.94079102 80.97729492 242.68579102 C79.11450969 242.25485967 79.11450969 242.25485967 77.41479492 243.31079102 C74.08329221 244.97654237 70.86124293 245.06614621 67.16479492 245.43579102 C66.53038565 246.91094657 65.90788666 248.39122434 65.28979492 249.87329102 C64.94174805 250.69700195 64.59370117 251.52071289 64.23510742 252.36938477 C62.86738944 256.28784686 62.0651216 260.38432097 61.16479492 264.43579102 C53.24479492 264.43579102 45.32479492 264.43579102 37.16479492 264.43579102 C36.50479492 261.46579102 35.84479492 258.49579102 35.16479492 255.43579102 C34.83479492 255.10579102 34.50479492 254.77579102 34.16479492 254.43579102 C34.09299528 252.91651064 34.08087485 251.3941162 34.10229492 249.87329102 C34.11131836 249.04700195 34.1203418 248.22071289 34.12963867 247.36938477 C34.14704102 246.41225586 34.14704102 246.41225586 34.16479492 245.43579102 C33.47514648 245.41000977 32.78549805 245.38422852 32.07495117 245.35766602 C26.04057582 244.99345132 21.46898955 244.06797128 16.13745117 241.17797852 C13.63036008 240.23471652 12.61270963 240.37211379 10.16479492 241.43579102 C8.28138388 243.1352409 8.28138388 243.1352409 6.60229492 245.24829102 C6.02350586 245.93536133 5.4447168 246.62243164 4.84838867 247.33032227 C3.24443242 249.33619795 1.6915511 251.37072567 0.16479492 253.43579102 C-5.49207804 252.17870813 -10.18007204 249.75861721 -15.14770508 246.81079102 C-16.21633789 246.17915039 -17.2849707 245.54750977 -18.38598633 244.89672852 C-19.19422852 244.41461914 -20.0024707 243.93250977 -20.83520508 243.43579102 C-20.5369351 238.90003028 -20.20797882 234.81817231 -18.21020508 230.68579102 C-16.73880092 227.20792663 -16.48437351 225.90935791 -17.83520508 222.43579102 C-19.10121784 220.74937629 -19.10121784 220.74937629 -20.83520508 219.43579102 C-23.88867051 219.20997082 -26.73386436 219.15938489 -29.78051758 219.24829102 C-30.66496552 219.25965088 -31.54941345 219.27101074 -32.46066284 219.28271484 C-36.24228202 219.33165761 -40.02292584 219.41551334 -43.80395508 219.49731445 C-46.56692901 219.55199831 -49.3297379 219.58802827 -52.09301758 219.62329102 C-53.35446091 219.66063354 -53.35446091 219.66063354 -54.64138794 219.69873047 C-59.82065025 219.76205623 -63.97763115 219.01116889 -68.82443237 217.16479492 C-70.80352597 216.44727625 -72.70614075 216.0072688 -74.77270508 215.62329102 C-85.43491702 212.97363596 -92.39626944 205.72612628 -97.96020508 196.58813477 C-101.9727709 188.42796486 -100.83520508 178.08932719 -100.83520508 169.43579102 C-84.33520508 169.43579102 -67.83520508 169.43579102 -50.83520508 169.43579102 C-50.83520508 168.11579102 -50.83520508 166.79579102 -50.83520508 165.43579102 C-51.40368164 165.2540332 -51.9721582 165.07227539 -52.55786133 164.88500977 C-53.33000977 164.63364258 -54.1021582 164.38227539 -54.89770508 164.12329102 C-55.65180664 163.8796582 -56.4059082 163.63602539 -57.18286133 163.38500977 C-73.2371115 157.63952701 -89.09284185 150.3904297 -96.83520508 134.43579102 C-97.17720947 133.78376709 -97.51921387 133.13174316 -97.87158203 132.45996094 C-100.70699724 126.72055713 -101.44473739 121.98478698 -101.27270508 115.62329102 C-101.25731689 114.74890381 -101.24192871 113.8745166 -101.22607422 112.97363281 C-100.84148683 100.02106511 -97.99200022 91.78207361 -88.91723633 82.46704102 C-78.62965233 72.77494591 -66.23609884 71.17878344 -52.56176758 71.45141602 C-51.333573 71.47483818 -51.333573 71.47483818 -50.08056641 71.49873352 C-46.6741981 71.57220721 -43.26903033 71.6568881 -39.86401367 71.77856445 C-37.346437 71.86338911 -34.83038317 71.91009063 -32.31176758 71.95141602 C-31.54917633 71.98865784 -30.78658508 72.02589966 -30.00088501 72.06427002 C-26.76284264 72.09527077 -24.67376836 72.07856841 -22.04632568 70.0645752 C-20.59180449 68.56945377 -19.20831074 67.00601419 -17.83520508 65.43579102 C-17.17520508 65.43579102 -16.51520508 65.43579102 -15.83520508 65.43579102 C-16.12395508 64.48704102 -16.41270508 63.53829102 -16.71020508 62.56079102 C-17.87140833 58.61753831 -18.49228908 54.63711172 -19.07739258 50.57250977 C-19.62215158 48.28104111 -19.62215158 48.28104111 -21.71020508 47.41625977 C-22.41145508 47.09270508 -23.11270508 46.76915039 -23.83520508 46.43579102 C-25.46801758 44.41235352 -25.46801758 44.41235352 -26.96020508 42.06079102 C-27.4577832 41.28993164 -27.95536133 40.51907227 -28.46801758 39.72485352 C-28.91918945 38.96946289 -29.37036133 38.21407227 -29.83520508 37.43579102 C-30.21547852 36.80801758 -30.59575195 36.18024414 -30.98754883 35.53344727 C-33.15170282 30.17791413 -32.76614403 23.28489721 -30.99536133 17.86547852 C-27.29310144 10.71026917 -21.57025769 4.18797466 -14.04104042 1.07173347 C-9.46633288 -0.24715498 -4.72566426 -0.0058412 0 0 Z " fill="#41DFCF" transform="translate(223.835205078125,155.564208984375)"/>
<path d="M0 0 C0 49.17 0 98.34 0 149 C-49.17 149 -98.34 149 -149 149 C-145.06102338 144.40452728 -141.16460895 140.01979861 -136.89433289 135.76734924 C-136.31004747 135.18150383 -135.72576205 134.59565843 -135.12377101 133.99206012 C-133.18472558 132.04905751 -131.24216341 130.10961143 -129.29956055 128.17016602 C-127.90109409 126.77034326 -126.50284018 125.37030814 -125.1047821 123.97007751 C-121.32240025 120.18315106 -117.53687947 116.3993772 -113.75063682 112.61631131 C-109.78846088 108.65667133 -105.82873002 104.69458741 -101.86860657 100.7328949 C-95.22531834 94.08778987 -88.57992953 87.444791 -81.93334961 80.80297852 C-74.23898597 73.11407 -66.54824959 65.42154745 -58.85936135 57.72716385 C-52.25899333 51.12226678 -45.65668981 44.5193092 -39.05274612 37.91798729 C-35.1075123 33.97431567 -31.16296489 30.02996389 -27.22015953 26.08386421 C-23.51980775 22.38063629 -19.81704232 18.6798392 -16.11235237 14.98095131 C-14.7492819 13.61920925 -13.38707306 12.25660412 -12.02576447 10.89310074 C-10.17638334 9.04101161 -8.32398968 7.1919911 -6.4707489 5.34376526 C-5.9252398 4.79602544 -5.37973071 4.24828562 -4.81769103 3.68394762 C-1.11415069 0 -1.11415069 0 0 0 Z " fill="#2DB4C9" transform="translate(1280,571)"/>
<path d="M0 0 C3.35003921 9.31618677 6.63667372 18.65219387 9.85717773 28.01391602 C10.56348154 30.06535083 11.27292616 32.1156829 11.98242188 34.16601562 C20 57.40665837 20 57.40665837 20 62 C34.52 62 49.04 62 64 62 C64.33 59.69 64.66 57.38 65 55 C65.54296875 52.9453125 65.54296875 52.9453125 66.1875 51.125 C66.45691406 50.3515625 66.72632813 49.578125 67.00390625 48.78125 C67.33261719 47.8634375 67.66132813 46.945625 68 46 C68.87657291 43.54221357 69.75180332 41.08398526 70.625 38.625 C70.87233887 37.93027588 71.11967773 37.23555176 71.37451172 36.51977539 C74.37803584 28.02626309 77.19346249 19.46953013 80.01611328 10.91455078 C80.57468018 9.22628174 80.57468018 9.22628174 81.14453125 7.50390625 C81.47815674 6.49142822 81.81178223 5.4789502 82.15551758 4.43579102 C83 2 83 2 84 0 C87.91396894 1.32053909 90.22745334 2.8877739 93.0625 5.875 C93.71347656 6.55304688 94.36445313 7.23109375 95.03515625 7.9296875 C95.68355469 8.61289063 96.33195312 9.29609375 97 10 C97.67160156 10.65355469 98.34320313 11.30710938 99.03515625 11.98046875 C111.90545847 25.20899011 117.61765501 43.25956963 117.4375 61.375 C117.42847656 62.47062256 117.41945313 63.56624512 117.41015625 64.69506836 C117.23053453 73.10797579 116.3193121 80.18930232 113 88 C112.73155273 88.63695801 112.46310547 89.27391602 112.18652344 89.93017578 C107.94979181 99.74315938 102.67628575 108.46639614 95 116 C94.34 116 93.68 116 93 116 C93 116.66 93 117.32 93 118 C91.03852126 119.38938077 89.03833424 120.7260411 87 122 C86.57589844 121.59007812 86.15179688 121.18015625 85.71484375 120.7578125 C82.60235309 117.89842548 80.60310265 116.15871122 76.4375 115.0625 C71.78174124 113.62344729 69.74388376 110.90404937 67 107 C65.414131 103.828262 65.62133555 100.36486178 65.4375 96.875 C65.39431641 96.12089844 65.35113281 95.36679687 65.30664062 94.58984375 C65.2005168 92.72678112 65.09974999 90.86341476 65 89 C57.954034 92.76877251 51.52432502 97.40844495 45 102 C45.33 102.99 45.66 103.98 46 105 C46.23331399 108.5169923 46.38136937 112.0328933 46.5234375 115.5546875 C47.16772179 120.21254604 48.78852903 122.82416053 52.125 126.0625 C55.87283638 128.58821582 59.82827604 130.29132003 64 132 C64 132.66 64 133.32 64 134 C47.53316885 139.96747487 28.91263004 139.00955444 12.9765625 131.9453125 C2.4608715 126.90913837 2.4608715 126.90913837 -1 124 C-1.33 123.01 -1.66 122.02 -2 121 C-1.07475261 119.62926313 -0.14446384 118.26170482 0.80859375 116.91015625 C7.31171548 106.48383977 7.04488663 95.502475 4.75 83.8125 C1.50803351 70.22639859 -3.28762345 60.99082305 -14.8984375 52.8984375 C-20.03738928 49.75293301 -25.44536301 47.33135797 -31 45 C-30.67 42.36 -30.34 39.72 -30 37 C-18.78 37 -7.56 37 4 37 C3.41987054 21.56230864 3.41987054 21.56230864 -3 8 C-3.598125 6.989375 -4.19625 5.97875 -4.8125 4.9375 C-5.204375 4.298125 -5.59625 3.65875 -6 3 C-2.25 0 -2.25 0 0 0 Z " fill="#CDDFEE" transform="translate(231,238)"/>
<path d="M0 0 C0.98458347 6.47503437 1.78588776 12.91332426 -2.09794807 18.5243969 C-5.14339685 22.28402487 -8.60159674 25.63201868 -12.06274414 29.00366211 C-13.36171164 30.32298537 -14.65747313 31.64547163 -15.95027161 32.97084045 C-19.45390526 36.54256198 -23.00297675 40.06554655 -26.56452489 43.57940745 C-30.29568916 47.27243887 -33.98994177 51.0021105 -37.69029236 54.72596741 C-43.90914455 60.97206495 -50.15885155 67.18597208 -56.42700195 73.38256836 C-63.66057189 80.53450857 -70.83850941 87.73889204 -77.98993593 94.97289842 C-84.14515124 101.19631339 -90.32928116 107.3898569 -96.53825659 113.55963904 C-100.24053444 117.23860089 -103.93209843 120.92678037 -107.59779549 124.64222527 C-111.04714965 128.13510573 -114.53151511 131.58888791 -118.04559135 135.01660728 C-119.32458747 136.27586984 -120.59117748 137.54788612 -121.84361267 138.83356857 C-132.28202966 149.5231041 -132.28202966 149.5231041 -140.31276649 149.81141812 C-143.24101453 149.72978544 -146.10526876 149.44016825 -149 149 C-145.14414203 144.39152818 -141.15127628 140.0065216 -136.89433289 135.76734924 C-136.31004747 135.18150383 -135.72576205 134.59565843 -135.12377101 133.99206012 C-133.18472558 132.04905751 -131.24216341 130.10961143 -129.29956055 128.17016602 C-127.90109409 126.77034326 -126.50284018 125.37030814 -125.1047821 123.97007751 C-121.32240025 120.18315106 -117.53687947 116.3993772 -113.75063682 112.61631131 C-109.78846088 108.65667133 -105.82873002 104.69458741 -101.86860657 100.7328949 C-95.22531834 94.08778987 -88.57992953 87.444791 -81.93334961 80.80297852 C-74.23898597 73.11407 -66.54824959 65.42154745 -58.85936135 57.72716385 C-52.25899333 51.12226678 -45.65668981 44.5193092 -39.05274612 37.91798729 C-35.1075123 33.97431567 -31.16296489 30.02996389 -27.22015953 26.08386421 C-23.51980775 22.38063629 -19.81704232 18.6798392 -16.11235237 14.98095131 C-14.7492819 13.61920925 -13.38707306 12.25660412 -12.02576447 10.89310074 C-10.17638334 9.04101161 -8.32398968 7.1919911 -6.4707489 5.34376526 C-5.9252398 4.79602544 -5.37973071 4.24828562 -4.81769103 3.68394762 C-1.11415069 0 -1.11415069 0 0 0 Z " fill="#52E2D4" transform="translate(1280,571)"/>
<path d="M0 0 C5.23764766 3.11606886 8.53755993 8.21889881 10.37890625 13.94140625 C12.14830054 22.02797683 10.66472489 28.83232317 6.8515625 36.1015625 C5.88217574 37.45731583 4.89017846 38.79808459 3.8515625 40.1015625 C4.5115625 41.0915625 5.1715625 42.0815625 5.8515625 43.1015625 C7.81912702 43.07033307 7.81912702 43.07033307 9.8515625 42.1015625 C11.1561281 39.10540304 11.1561281 39.10540304 11.8515625 36.1015625 C12.8415625 36.1015625 13.8315625 36.1015625 14.8515625 36.1015625 C15.46346052 44.05623672 15.46346052 44.05623672 13.3515625 47.6640625 C9.88357025 49.65815804 6.69806303 50.04755145 2.8515625 49.1015625 C2.1296875 48.2765625 1.4078125 47.4515625 0.6640625 46.6015625 C-2.81595908 43.50820999 -3.93168592 43.8672633 -8.4609375 44.0390625 C-14.38902886 44.24647879 -18.46787967 43.90784757 -23.1484375 40.1015625 C-28.62162169 34.45695867 -31.08732706 28.59017896 -31.5234375 20.7265625 C-31.35723571 13.76983039 -28.11834011 6.93341226 -23.1484375 2.1015625 C-15.89575151 -2.92079864 -8.09950601 -3.45277746 0 0 Z " fill="#47E0D1" transform="translate(643.1484375,251.8984375)"/>
<path d="M0 0 C3.9790243 -0.08802152 7.95779388 -0.14073233 11.9375 -0.1875 C13.05447266 -0.21263672 14.17144531 -0.23777344 15.32226562 -0.26367188 C23.12979442 -0.33235981 30.47337989 -0.09654448 36.5625 5.25 C38.4339765 8.83021591 38.57020182 11.00858729 38 15 C35.82173239 18.42299195 33.34419141 20.73072726 30 23 C30.44988281 23.35707031 30.89976562 23.71414063 31.36328125 24.08203125 C33.61884173 26.72518208 34.23278278 29.36245036 35.1875 32.6875 C35.53167969 33.86699219 35.87585938 35.04648437 36.23046875 36.26171875 C36.48441406 37.16535156 36.73835937 38.06898438 37 39 C37.99 39 38.98 39 40 39 C40.33 36.03 40.66 33.06 41 30 C42.32 30 43.64 30 45 30 C45.24925505 34.23733589 45.35281741 37.94154776 44 42 C41.43916346 44.56083654 39.56689414 45.05105671 35.9921875 45.234375 C33.39267619 44.92855014 31.78318337 44.0051258 30.08984375 42.00390625 C28.02134674 38.20054078 27.00301156 34.02833703 25.89453125 29.86328125 C25.21295199 26.90356812 25.21295199 26.90356812 23 25 C20.79749008 24.53993654 20.79749008 24.53993654 18.375 24.375 C16.209375 24.189375 16.209375 24.189375 14 24 C14 29.28 14 34.56 14 40 C16.31 40 18.62 40 21 40 C21 41.32 21 42.64 21 44 C14.07 44 7.14 44 0 44 C0 42.68 0 41.36 0 40 C2.31 40 4.62 40 7 40 C7 28.12 7 16.24 7 4 C4.69 4 2.38 4 0 4 C0 2.68 0 1.36 0 0 Z " fill="#2FADE2" transform="translate(950,251)"/>
<path d="M0 0 C4.33310328 -0.116965 8.6657958 -0.1875089 13 -0.25 C14.22074219 -0.28351563 15.44148437 -0.31703125 16.69921875 -0.3515625 C23.95956433 -0.43005272 28.89886581 -0.07720025 35 4 C37.67076635 8.00614952 37.82787585 11.28938639 37 16 C34.56246638 19.09632649 32.26549269 20.82300487 29 23 C29.67482422 23.55107422 29.67482422 23.55107422 30.36328125 24.11328125 C32.5297667 26.61068572 33.20669568 29.042162 34.1875 32.1875 C34.53167969 33.27417969 34.87585938 34.36085938 35.23046875 35.48046875 C35.48441406 36.31191406 35.73835937 37.14335937 36 38 C37.32 38 38.64 38 40 38 C40.33 35.36 40.66 32.72 41 30 C42.32 30 43.64 30 45 30 C45.44070796 38.66725664 45.44070796 38.66725664 42 43 C38.50875983 45.32749345 37.10777749 45.50299316 33 45 C28.38333187 41.96618952 27.45641768 37.04077497 26 32 C25.38761101 29.98271862 24.74023321 27.97395523 24 26 C21.70370006 24.85185003 19.92301914 24.69230191 17.375 24.4375 C15.93125 24.293125 14.4875 24.14875 13 24 C13 29.28 13 34.56 13 40 C15.31 40 17.62 40 20 40 C20 41.32 20 42.64 20 44 C13.4 44 6.8 44 0 44 C0 42.68 0 41.36 0 40 C2.31 40 4.62 40 7 40 C7 28.12 7 16.24 7 4 C4.69 4 2.38 4 0 4 C0 2.68 0 1.36 0 0 Z " fill="#46E0D1" transform="translate(565,251)"/>
<path d="M0 0 C0.47340259 4.40887481 0.41957708 6.41227855 -2.19811344 10.07900143 C-3.22863991 11.14789318 -4.27881069 12.19805608 -5.34376526 13.23265076 C-5.91869073 13.81849617 -6.49361621 14.40434157 -7.08596367 15.00793988 C-9.01566018 16.96554482 -10.9694022 18.89718855 -12.92407227 20.82983398 C-14.31316956 22.22841695 -15.70077339 23.6284846 -17.08699036 25.02992249 C-20.85616493 28.8310284 -24.64717181 32.60963477 -28.44341016 36.38368869 C-32.41179672 40.33436376 -36.36308782 44.30207683 -40.31712341 48.2671051 C-46.96034257 54.92306265 -53.61819245 61.56411745 -60.28442383 68.19702148 C-67.99339025 75.86789166 -75.67681398 83.56365497 -83.34745365 91.27283615 C-89.93167431 97.88881336 -96.52942724 104.49106266 -103.1387009 111.08201271 C-107.08712933 115.01952285 -111.03066374 118.96162161 -114.96206856 122.91613579 C-118.65880051 126.6330753 -122.37221134 130.33249778 -126.09924126 134.01904869 C-127.46500947 135.3755538 -128.82484228 136.73806476 -130.17825317 138.10689926 C-132.02558455 139.97333347 -133.89308471 141.81690579 -135.76734924 143.65623474 C-136.5655364 144.47784447 -136.5655364 144.47784447 -137.37984854 145.31605238 C-140.31084148 148.14184442 -141.76832139 148.98010633 -145.88954067 149.33398533 C-146.91599225 149.22377017 -147.94244383 149.11355501 -149 149 C-145.14414203 144.39152818 -141.15127628 140.0065216 -136.89433289 135.76734924 C-136.31004747 135.18150383 -135.72576205 134.59565843 -135.12377101 133.99206012 C-133.18472558 132.04905751 -131.24216341 130.10961143 -129.29956055 128.17016602 C-127.90109409 126.77034326 -126.50284018 125.37030814 -125.1047821 123.97007751 C-121.32240025 120.18315106 -117.53687947 116.3993772 -113.75063682 112.61631131 C-109.78846088 108.65667133 -105.82873002 104.69458741 -101.86860657 100.7328949 C-95.22531834 94.08778987 -88.57992953 87.444791 -81.93334961 80.80297852 C-74.23898597 73.11407 -66.54824959 65.42154745 -58.85936135 57.72716385 C-52.25899333 51.12226678 -45.65668981 44.5193092 -39.05274612 37.91798729 C-35.1075123 33.97431567 -31.16296489 30.02996389 -27.22015953 26.08386421 C-23.51980775 22.38063629 -19.81704232 18.6798392 -16.11235237 14.98095131 C-14.7492819 13.61920925 -13.38707306 12.25660412 -12.02576447 10.89310074 C-10.17638334 9.04101161 -8.32398968 7.1919911 -6.4707489 5.34376526 C-5.9252398 4.79602544 -5.37973071 4.24828562 -4.81769103 3.68394762 C-1.11415069 0 -1.11415069 0 0 0 Z " fill="#64E4D7" transform="translate(1280,571)"/>
<path d="M0 0 C4.33310328 -0.116965 8.6657958 -0.1875089 13 -0.25 C14.22074219 -0.28351563 15.44148438 -0.31703125 16.69921875 -0.3515625 C23.95956433 -0.43005272 28.89886581 -0.07720025 35 4 C37.82767016 8.24150524 37.77156125 12.02064595 37 17 C34.00274151 21.23142375 31.04090366 22.99181927 26 24 C21.98351094 24.1491398 18.02257715 24.0893906 14 24 C14 29.28 14 34.56 14 40 C16.31 40 18.62 40 21 40 C21 41.32 21 42.64 21 44 C14.07 44 7.14 44 0 44 C0 42.68 0 41.36 0 40 C2.31 40 4.62 40 7 40 C7 28.12 7 16.24 7 4 C4.69 4 2.38 4 0 4 C0 2.68 0 1.36 0 0 Z " fill="#2DACE2" transform="translate(1019,251)"/>
<path d="M0 0 C13.2 0 26.4 0 40 0 C40 5.61 40 11.22 40 17 C38.02 17 36.04 17 34 17 C34 12.71 34 8.42 34 4 C27.4 4 20.8 4 14 4 C14 9.28 14 14.56 14 20 C17.63 20 21.26 20 25 20 C25 17.69 25 15.38 25 13 C26.32 13 27.64 13 29 13 C29 18.94 29 24.88 29 31 C27.68 31 26.36 31 25 31 C25 28.36 25 25.72 25 23 C21.37 23 17.74 23 14 23 C14 28.61 14 34.22 14 40 C20.93 40 27.86 40 35 40 C35 35.71 35 31.42 35 27 C36.65 27 38.3 27 40 27 C40 32.61 40 38.22 40 44 C26.8 44 13.6 44 0 44 C0 42.68 0 41.36 0 40 C2.31 40 4.62 40 7 40 C7 28.12 7 16.24 7 4 C4.69 4 2.38 4 0 4 C0 2.68 0 1.36 0 0 Z " fill="#45E0D0" transform="translate(811,251)"/>
<path d="M0 0 C4.91258285 2.60077916 7.87095709 5.4061451 9.5546875 10.765625 C10.9961201 17.9980763 11.138829 25.95936227 7.265625 32.41015625 C4.39343081 36.01812858 1.5137466 37.7477089 -3 38.5 C-7.51025158 37.7482914 -10.36021433 36.01430461 -13.265625 32.4453125 C-17.08419462 26.17963136 -16.81019728 19.09335983 -16 12 C-14.70938542 7.28708158 -12.80076803 4.69632002 -9.125 1.5 C-5.60894516 -0.18770632 -3.84031041 -0.64005173 0 0 Z " fill="#F5F4EF" transform="translate(728,254)"/>
<path d="M0 0 C2.55339813 1.2551514 3.72432889 2.2799445 4.8515625 4.91015625 C5.1640625 8.03515625 5.1640625 8.03515625 4.8515625 10.91015625 C2.8515625 12.91015625 2.8515625 12.91015625 -0.1484375 13.16015625 C-3.1484375 12.91015625 -3.1484375 12.91015625 -5.1484375 10.91015625 C-4.8214619 8.29435146 -4.32804682 6.26937488 -3.1484375 3.91015625 C-6.84124297 2.06375351 -11.10933103 2.56775162 -15.1484375 2.91015625 C-18.29783212 3.79342772 -18.29783212 3.79342772 -20.1484375 5.91015625 C-21.0652838 8.86640892 -21.0652838 8.86640892 -20.1484375 11.91015625 C-15.15515407 15.92782892 -10.06297799 17.31028282 -3.98242188 18.80078125 C1.39312428 20.29143602 3.76426369 22.22291372 6.8515625 26.91015625 C7.87055569 30.61741437 7.1485426 34.03901462 5.9140625 37.66015625 C1.32649645 42.66477376 -4.44186368 44.16442602 -11.0859375 44.47265625 C-17.20073597 44.26909062 -22.15559507 42.4409512 -27.1484375 38.91015625 C-29.30346281 35.67761829 -29.61699885 34.65864702 -29.1484375 30.91015625 C-27.9609375 29.09765625 -27.9609375 29.09765625 -26.1484375 27.91015625 C-23.5859375 27.59765625 -23.5859375 27.59765625 -21.1484375 27.91015625 C-19.1484375 29.91015625 -19.1484375 29.91015625 -19.0234375 32.53515625 C-19.0646875 33.31890625 -19.1059375 34.10265625 -19.1484375 34.91015625 C-20.6334375 35.40515625 -20.6334375 35.40515625 -22.1484375 35.91015625 C-22.1484375 36.57015625 -22.1484375 37.23015625 -22.1484375 37.91015625 C-16.13088826 39.46307218 -10.34322091 39.83427558 -4.5859375 37.41015625 C-3.7815625 36.91515625 -2.9771875 36.42015625 -2.1484375 35.91015625 C-1.73118072 32.53615047 -1.73118072 32.53615047 -2.1484375 28.91015625 C-5.67290087 26.23104387 -9.35543382 25.13367787 -13.5859375 23.97265625 C-19.21930313 22.29666625 -23.78740498 20.91510672 -27.5234375 16.16015625 C-28.48821626 12.68695271 -28.83071389 9.44111242 -28.1484375 5.91015625 C-20.97859264 -3.5793443 -10.42602777 -3.96041691 0 0 Z " fill="#32AEE2" transform="translate(898.1484375,252.08984375)"/>
<path d="M0 0 C0.66 0 1.32 0 2 0 C7.33333333 0 12.66666667 0 18 0 C18.33 6.27 18.66 12.54 19 19 C22.96 18.505 22.96 18.505 27 18 C27.33 12.72 27.66 7.44 28 2 C26.68 2 25.36 2 24 2 C24 1.34 24 0.68 24 0 C26.97 0 29.94 0 33 0 C33 6.6 33 13.2 33 20 C34.32 20 35.64 20 37 20 C37 20.66 37 21.32 37 22 C34.03 22 31.06 22 28 22 C27.505 21.01 27.505 21.01 27 20 C26.34 20.66 25.68 21.32 25 22 C19.31651376 22.5412844 19.31651376 22.5412844 17 22 C14.1122662 19.50075057 13.99666055 17.95565212 13.70703125 14.109375 C13.72685055 12.65595991 13.76245155 11.20268833 13.8125 9.75 C13.83280273 8.63238281 13.83280273 8.63238281 13.85351562 7.4921875 C13.88872796 5.66114584 13.94253149 3.83047831 14 2 C11.69 2 9.38 2 7 2 C7.02094727 2.66531738 7.04189453 3.33063477 7.06347656 4.01611328 C7.14700609 7.05225302 7.19877603 10.08815043 7.25 13.125 C7.28351562 14.17171875 7.31703125 15.2184375 7.3515625 16.296875 C7.43048886 22.53205705 7.2738708 26.31104102 3 31 C0.00261059 32.99825961 -0.63347508 33.27550398 -4 33.25 C-4.680625 33.25515625 -5.36125 33.2603125 -6.0625 33.265625 C-8 33 -8 33 -11 31 C-11.1875 28.375 -11.1875 28.375 -11 26 C-9.35 25.67 -7.7 25.34 -6 25 C-4.875 28.75 -4.875 28.75 -6 31 C-3.97954558 30.39816251 -1.97888961 29.72693904 0 29 C1.35439668 26.29120665 1.06501451 23.99066732 1 21 C0.34 21.33 -0.32 21.66 -1 22 C-7.24259681 22.57801822 -7.24259681 22.57801822 -10.375 20.1875 C-13.57565897 15.87892061 -13.66083338 11.17212261 -13 6 C-9.29575208 -0.91459612 -7.47108023 -1.20070932 0 0 Z " fill="#37B0E2" transform="translate(987,328)"/>
<path d="M0 0 C1.734375 1.3828125 1.734375 1.3828125 3 3 C3.3125 6.5625 3.3125 6.5625 3 10 C1 12 1 12 -2.0625 12.1875 C-5 12 -5 12 -6 11 C-6.23529412 5.47058824 -6.23529412 5.47058824 -5 3 C-9.45083345 0.77458328 -15.52251213 1.52720388 -20.125 3 C-21.053125 3.495 -21.053125 3.495 -22 4 C-22.33380814 7.37436186 -22.33380814 7.37436186 -22 11 C-18.32903176 14.81215932 -12.97151186 15.62508408 -8.01953125 16.9296875 C-2.93748215 18.38443602 0.17988677 20.32007441 4 24 C5.61196185 27.22392371 5.44914272 30.50449796 5 34 C3.20036846 37.97418633 1.38361793 40.13287402 -2.5625 41.875 C-10.61985147 44.39573566 -18.49501731 43.68665816 -26 40 C-28.5 38.25 -28.5 38.25 -30 36 C-30.375 32.375 -30.375 32.375 -30 29 C-28 27 -28 27 -25.5 26.75 C-23 27 -23 27 -21 29 C-20.875 31.625 -20.875 31.625 -21 34 C-22.485 34.495 -22.485 34.495 -24 35 C-24 35.66 -24 36.32 -24 37 C-18.07260647 38.52964994 -12.33220084 38.74963598 -6.5 36.875 C-3.74953282 35.17269225 -3.74953282 35.17269225 -2.9375 32 C-2.69885912 29.05573373 -2.69885912 29.05573373 -4.25048828 27.40185547 C-6.18409293 25.85248931 -7.68228829 25.25471045 -10.0546875 24.5703125 C-10.83457031 24.33183594 -11.61445312 24.09335937 -12.41796875 23.84765625 C-14.04669216 23.36861995 -15.67689956 22.89459868 -17.30859375 22.42578125 C-22.40337733 20.8562186 -25.51581147 19.24934366 -29 15 C-30.60127074 11.79745853 -30.40701607 9.54685436 -30 6 C-27.86860622 2.4381406 -25.23905231 -0.20838324 -21.75 -2.4375 C-14.26551489 -3.96841741 -6.89979812 -3.42873404 0 0 Z " fill="#46E0D1" transform="translate(803,253)"/>
<path d="M0 0 C5.27807065 3.14011798 8.51998645 8.24910435 10.3828125 14.00390625 C11.9603777 21.06351051 10.90006262 27.58662273 7.8515625 34.1015625 C4.46413723 39.2310922 0.68675982 42.2888834 -5.1484375 44.1015625 C-11.01142161 45.0150322 -16.14651918 44.46450356 -21.328125 41.49609375 C-26.76981447 37.3272458 -29.96893019 31.82475415 -31.1484375 25.1015625 C-32.11124204 16.93276772 -29.66624151 11.14803323 -25.3984375 4.2890625 C-18.20292033 -2.70657919 -9.16563922 -3.90726453 0 0 Z M-19.1484375 6.1015625 C-23.65844512 11.64163358 -23.75325723 17.83817503 -23.53125 24.75 C-22.82095361 30.96871739 -20.96878345 34.51865298 -16.2734375 38.6015625 C-12.75738266 40.28926882 -10.98874791 40.74161423 -7.1484375 40.1015625 C-2.50193768 37.87124258 0.09304528 35.20143367 2.16015625 30.57421875 C4.36165055 22.70107812 3.64359895 14.29335576 -0.1484375 7.1015625 C-3.23538303 4.16519968 -5.63843763 2.27315339 -9.8984375 1.7890625 C-14.13320219 2.19625141 -15.93949618 3.31117874 -19.1484375 6.1015625 Z " fill="#48E0D1" transform="translate(735.1484375,251.8984375)"/>
<path d="M0 0 C6.6 0 13.2 0 20 0 C20 1.32 20 2.64 20 4 C17.69 4 15.38 4 13 4 C13.11001624 8.56299068 13.24061611 13.12516706 13.375 17.6875 C13.4059375 18.98107422 13.436875 20.27464844 13.46875 21.60742188 C13.50742187 22.85458984 13.54609375 24.10175781 13.5859375 25.38671875 C13.6173584 26.53358154 13.6487793 27.68044434 13.68115234 28.86206055 C14.08979201 32.88368812 14.91254099 35.83198847 17.6875 38.8125 C21.00939726 40.51833914 23.31514818 40.45252566 27 40 C30.38939556 37.86320715 31.72582557 36.8225233 33 33 C33.15109093 30.79040747 33.24873801 28.57699953 33.31640625 26.36328125 C33.37924805 24.41518555 33.37924805 24.41518555 33.44335938 22.42773438 C33.48316987 21.05599239 33.52288216 19.68424756 33.5625 18.3125 C33.60570835 16.92902355 33.64932339 15.54555973 33.69335938 14.16210938 C33.79958028 10.77484281 33.90162358 7.38750201 34 4 C31.69 4 29.38 4 27 4 C27 2.68 27 1.36 27 0 C33.27 0 39.54 0 46 0 C46 1.32 46 2.64 46 4 C44.02 4 42.04 4 40 4 C40.01571045 4.80630859 40.0314209 5.61261719 40.04760742 6.44335938 C40.11031976 10.1288337 40.1491062 13.81419535 40.1875 17.5 C40.21263672 18.7684375 40.23777344 20.036875 40.26367188 21.34375 C40.31777111 28.26845258 40.19960559 33.78768168 37 40 C31.75679419 44.35074525 27.02991818 45.3900603 20.37890625 45.26953125 C16.27025824 44.80401941 13.285523 43.47670556 10 41 C4.97942695 33.70378802 5.53047882 26.62042803 5.75 18 C5.77010015 16.63934927 5.78834471 15.2786698 5.8046875 13.91796875 C5.8515915 10.611237 5.91722275 7.30599584 6 4 C4.02 4 2.04 4 0 4 C0 2.68 0 1.36 0 0 Z " fill="#48E0D1" transform="translate(517,251)"/>
<path d="M0 0 C6.6 0 13.2 0 20 0 C20 1.32 20 2.64 20 4 C17.69 4 15.38 4 13 4 C13.06910558 8.03904921 13.15718016 12.07720578 13.26245117 16.11547852 C13.29559806 17.48775958 13.32366171 18.86017362 13.34643555 20.23266602 C13.38016766 22.21137766 13.4340149 24.18971376 13.48828125 26.16796875 C13.51446533 27.35672607 13.54064941 28.5454834 13.56762695 29.77026367 C14.0389391 33.29086691 14.87538493 35.17919046 17 38 C20.7373856 40.4915904 22.57331583 40.45793285 27 40 C30.38939556 37.86320715 31.72582557 36.8225233 33 33 C33.15109093 30.79040747 33.24873801 28.57699953 33.31640625 26.36328125 C33.37924805 24.41518555 33.37924805 24.41518555 33.44335938 22.42773438 C33.48316987 21.05599239 33.52288216 19.68424756 33.5625 18.3125 C33.60570835 16.92902355 33.64932339 15.54555973 33.69335938 14.16210938 C33.79958028 10.77484281 33.90162358 7.38750201 34 4 C31.69 4 29.38 4 27 4 C27 2.68 27 1.36 27 0 C33.27 0 39.54 0 46 0 C46 1.32 46 2.64 46 4 C44.02 4 42.04 4 40 4 C40.01571045 4.80630859 40.0314209 5.61261719 40.04760742 6.44335938 C40.11031976 10.1288337 40.1491062 13.81419535 40.1875 17.5 C40.21263672 18.7684375 40.23777344 20.036875 40.26367188 21.34375 C40.31777111 28.26845258 40.19960559 33.78768168 37 40 C31.65199139 44.43770928 26.99733929 45.30743631 20.24609375 45.21875 C15.03794936 44.71152202 11.25054938 41.94709568 8 38 C5.98976641 33.95850902 5.76516785 30.65344885 5.8046875 26.16796875 C5.81435547 24.22954102 5.81435547 24.22954102 5.82421875 22.25195312 C5.84092673 20.8971327 5.85785658 19.54231499 5.875 18.1875 C5.88503997 16.81315749 5.89416404 15.43880797 5.90234375 14.06445312 C5.92588758 10.70945683 5.95877433 7.35481801 6 4 C4.02 4 2.04 4 0 4 C0 2.68 0 1.36 0 0 Z " fill="#48E0D1" transform="translate(657,251)"/>
<path d="M0 0 C2.83439137 -0.10901505 5.66450203 -0.18777904 8.5 -0.25 C9.29148437 -0.28351563 10.08296875 -0.31703125 10.8984375 -0.3515625 C16.70426853 -0.44674006 21.2140192 0.58787722 26 4 C28.91679429 7.38995087 30.22349965 10.58561258 30.4375 15.0625 C29.84256438 20.41692054 28.54553239 23.53581142 24.625 27.25 C19.08905548 30.94062968 14.66115308 31.26608548 8.1875 31.125 C7.00510742 31.11146484 7.00510742 31.11146484 5.79882812 31.09765625 C3.86575334 31.07422504 1.9328362 31.03835838 0 31 C0 30.01 0 29.02 0 28 C1.65 28 3.3 28 5 28 C5 19.75 5 11.5 5 3 C3.35 3 1.7 3 0 3 C0 2.01 0 1.02 0 0 Z " fill="#35AFE2" transform="translate(603,319)"/>
<path d="M0 0 C13.53 0 27.06 0 41 0 C41 5.94 41 11.88 41 18 C39.02 18 37.04 18 35 18 C35 13.38 35 8.76 35 4 C31.37 4 27.74 4 24 4 C24 15.88 24 27.76 24 40 C26.31 40 28.62 40 31 40 C31 41.32 31 42.64 31 44 C24.07 44 17.14 44 10 44 C10 42.68 10 41.36 10 40 C12.31 40 14.62 40 17 40 C17 28.12 17 16.24 17 4 C13.37 4 9.74 4 6 4 C6 8.62 6 13.24 6 18 C4.02 18 2.04 18 0 18 C0 12.06 0 6.12 0 0 Z " fill="#47E0D1" transform="translate(475,251)"/>
<path d="M0 0 C3.71441624 2.14727916 5.83397779 4.40360294 7.625 8.375 C7.5625 12.125 7.5625 12.125 6.625 15.375 C3.625 17.375 3.625 17.375 1.0625 17.125 C-1.375 16.375 -1.375 16.375 -3.375 14.375 C-3.14756695 11.41837034 -2.76264062 9.82466312 -0.8125 7.5625 C-0.338125 7.170625 0.13625 6.77875 0.625 6.375 C-3.91360607 3.71825498 -7.1167577 2.71771971 -12.375 3.375 C-16.65561527 5.43298811 -19.26367152 7.62863626 -20.90234375 12.19140625 C-22.44244125 19.30640215 -22.36176016 26.47111411 -18.5625 32.81640625 C-16.2057368 35.90965795 -14.10974099 37.12121382 -10.265625 37.68359375 C-6.12750637 37.91271777 -3.71449466 37.54166102 0.0625 35.6875 C2.6976148 33.30946957 3.68526802 31.75803514 4.625 28.375 C5.945 28.705 7.265 29.035 8.625 29.375 C8.30786948 33.81482731 7.23917729 36.72153733 4.20703125 40.05078125 C0.35860017 43.2720606 -3.98103163 44.22564625 -8.875 44.75 C-15.34392937 44.05690042 -19.67696272 42.52089679 -24.1875 37.6875 C-29.02288344 31.62671117 -31.06873784 25.74706644 -30.78125 17.9609375 C-29.72079047 11.21070473 -26.63687961 5.97689586 -21.25 1.8125 C-14.85112357 -2.5820591 -7.11887727 -3.21885445 0 0 Z " fill="#31AEE2" transform="translate(939.375,251.625)"/>
<path d="M0 0 C4.91505819 2.60208963 7.85759463 5.40501807 9.55859375 10.7578125 C10.72929669 16.70456904 11.31016014 24.28496803 8.5 29.8125 C8.005 30.534375 7.51 31.25625 7 32 C6.49210938 31.6390625 5.98421875 31.278125 5.4609375 30.90625 C2.21051702 28.71495529 -0.28893482 27.12548209 -4.1875 26.4375 C-7.67504672 27.13500934 -9.37220113 28.66417878 -12 31 C-12.66 31 -13.32 31 -14 31 C-17.10499217 24.40499663 -17.20111725 16.45641798 -15.3125 9.44921875 C-12.3894367 2.9819412 -7.38337584 -1.23056264 0 0 Z " fill="#F5F4EF" transform="translate(636,254)"/>
<path d="M0 0 C13.2 0 26.4 0 40 0 C40 5.94 40 11.88 40 18 C38.35 18 36.7 18 35 18 C35 13.38 35 8.76 35 4 C31.37 4 27.74 4 24 4 C24 15.88 24 27.76 24 40 C26.31 40 28.62 40 31 40 C31 41.32 31 42.64 31 44 C24.07 44 17.14 44 10 44 C10 42.68 10 41.36 10 40 C12.31 40 14.62 40 17 40 C17 28.12 17 16.24 17 4 C13.04 4 9.08 4 5 4 C5 8.29 5 12.58 5 17 C3.35 17 1.7 17 0 17 C0 11.39 0 5.78 0 0 Z " fill="#2EACE2" transform="translate(1058,251)"/>
<path d="M0 0 C0.66 0 1.32 0 2 0 C4.66666667 0 7.33333333 0 10 0 C10 0.66 10 1.32 10 2 C9.01 2 8.02 2 7 2 C7.02094727 2.66531738 7.04189453 3.33063477 7.06347656 4.01611328 C7.14700609 7.05225302 7.19877603 10.08815043 7.25 13.125 C7.28351563 14.17171875 7.31703125 15.2184375 7.3515625 16.296875 C7.43048886 22.53205705 7.2738708 26.31104102 3 31 C0.00261059 32.99825961 -0.63347508 33.27550398 -4 33.25 C-4.680625 33.25515625 -5.36125 33.2603125 -6.0625 33.265625 C-8 33 -8 33 -11 31 C-11.1875 28.375 -11.1875 28.375 -11 26 C-9.35 25.67 -7.7 25.34 -6 25 C-4.875 28.75 -4.875 28.75 -6 31 C-3.97954558 30.39816251 -1.97888961 29.72693904 0 29 C1.35439668 26.29120665 1.06501451 23.99066732 1 21 C0.34 21.33 -0.32 21.66 -1 22 C-7.24259681 22.57801822 -7.24259681 22.57801822 -10.375 20.1875 C-13.57565897 15.87892061 -13.66083338 11.17212261 -13 6 C-9.29575208 -0.91459612 -7.47108023 -1.20070932 0 0 Z " fill="#37B0E2" transform="translate(1065,328)"/>
<path d="M0 0 C2.64 0 5.28 0 8 0 C8.33 0.66 8.66 1.32 9 2 C9.99 1.34 10.98 0.68 12 0 C15.94671094 0.07175838 18.24834857 0.44107971 21.4375 2.8125 C23.87902367 7.79320828 23.84813358 12.56594063 23 18 C21 21.25 21 21.25 18 23 C15.1425446 23.44043485 12.92737092 23.29273709 10 23 C9.67 22.67 9.34 22.34 9 22 C8.67 24.31 8.34 26.62 8 29 C9.32 29 10.64 29 12 29 C12 29.66 12 30.32 12 31 C7.71 31 3.42 31 -1 31 C-1 30.34 -1 29.68 -1 29 C0.65 29 2.3 29 4 29 C4 20.42 4 11.84 4 3 C2.68 3 1.36 3 0 3 C0 2.01 0 1.02 0 0 Z " fill="#2EADE2" transform="translate(746,327)"/>
<path d="M0 0 C6.93 0 13.86 0 21 0 C21 1.32 21 2.64 21 4 C18.69 4 16.38 4 14 4 C14 15.88 14 27.76 14 40 C16.31 40 18.62 40 21 40 C21 41.32 21 42.64 21 44 C14.07 44 7.14 44 0 44 C0 42.68 0 41.36 0 40 C2.31 40 4.62 40 7 40 C7 28.12 7 16.24 7 4 C4.69 4 2.38 4 0 4 C0 2.68 0 1.36 0 0 Z " fill="#45E0D0" transform="translate(749,251)"/>
<path d="M0 0 C3.27126315 2.6704189 4.65752177 4.10805716 5.40234375 8.22265625 C5.59834642 12.91888032 5.05875178 16.2615256 2 20 C-2.01858595 22.6790573 -5.27641721 22.69610694 -10 22 C-12.87029869 20.20606332 -14.49131638 19.01736724 -16 16 C-16.61766523 10.52042702 -17.04431644 6.37410058 -13.625 1.875 C-8.92779982 -1.48014298 -5.54277898 -1.51948596 0 0 Z " fill="#35AFE2" transform="translate(739,328)"/>
<path d="M0 0 C3 0.375 3 0.375 4.875 1.875 C5.24625 2.37 5.6175 2.865 6 3.375 C6.53625 2.88 7.0725 2.385 7.625 1.875 C10.72140596 -0.08062482 12.39853135 -0.22524477 16 0.375 C18.26736749 2.47516953 19.79875253 4.16720653 20.31835938 7.28564453 C20.39305667 9.4331919 20.34974228 11.5411228 20.25 13.6875 C20.23195313 14.42806641 20.21390625 15.16863281 20.1953125 15.93164062 C20.14847337 17.7466571 20.07673789 19.56100166 20 21.375 C20.99 21.375 21.98 21.375 23 21.375 C23 22.035 23 22.695 23 23.375 C19.37 23.375 15.74 23.375 12 23.375 C12 22.715 12 22.055 12 21.375 C12.99 21.375 13.98 21.375 15 21.375 C14.67 16.095 14.34 10.815 14 5.375 C11.525 4.88 11.525 4.88 9 4.375 C6.94077598 6.43422402 7.58572421 10.59208124 7.4375 13.4375 C7.39431641 14.19611328 7.35113281 14.95472656 7.30664062 15.73632812 C7.20026367 17.61565438 7.09960066 19.49530244 7 21.375 C7.99 21.375 8.98 21.375 10 21.375 C10 22.035 10 22.695 10 23.375 C6.37 23.375 2.74 23.375 -1 23.375 C-1 22.715 -1 22.055 -1 21.375 C-0.01 21.375 0.98 21.375 2 21.375 C1.67 16.095 1.34 10.815 1 5.375 C-0.65 5.045 -2.3 4.715 -4 4.375 C-6.42479736 8.01219605 -6.38662577 10.23203482 -6.625 14.5625 C-6.69976563 15.83480469 -6.77453125 17.10710937 -6.8515625 18.41796875 C-6.90054688 19.39378906 -6.94953125 20.36960937 -7 21.375 C-5.68 21.375 -4.36 21.375 -3 21.375 C-3 22.035 -3 22.695 -3 23.375 C-6.96 23.375 -10.92 23.375 -15 23.375 C-15 22.715 -15 22.055 -15 21.375 C-13.68 21.375 -12.36 21.375 -11 21.375 C-11 15.435 -11 9.495 -11 3.375 C-12.32 3.375 -13.64 3.375 -15 3.375 C-15 2.715 -15 2.055 -15 1.375 C-12.36 1.375 -9.72 1.375 -7 1.375 C-6.67 2.035 -6.34 2.695 -6 3.375 C-5.62875 2.88 -5.2575 2.385 -4.875 1.875 C-3 0.375 -3 0.375 0 0 Z " fill="#39B0E3" transform="translate(545,326.625)"/>
<path d="M0 0 C4.06662662 1.55271198 5.57519602 2.36279402 8 6 C8.25 8.5625 8.25 8.5625 8 11 C7.34 11.66 6.68 12.32 6 13 C3.875 12.625 3.875 12.625 2 12 C1.06576355 8.98968256 0.95550089 8.13349732 2 5 C-1.10048928 3.44975536 -3.57894218 3.71007985 -7 4 C-9.75329021 5.79562405 -11.52627461 7.05254922 -13 10 C-13.41251687 14.92640344 -13.6526414 19.47717008 -11.6875 24.0625 C-9.96162871 26.2156101 -9.96162871 26.2156101 -7 28 C-2.2752051 27.750688 -2.2752051 27.750688 1.875 25.6875 C3.13079812 23.80380283 3.61704951 22.22111286 4 20 C2.02 20 0.04 20 -2 20 C-2 19.01 -2 18.02 -2 17 C2.62 17 7.24 17 12 17 C12 17.99 12 18.98 12 20 C10.68 20 9.36 20 8 20 C8 23.96 8 27.92 8 32 C7.01 32 6.02 32 5 32 C4.67 31.01 4.34 30.02 4 29 C3.44957031 29.48339844 2.89914062 29.96679688 2.33203125 30.46484375 C-1.80463501 33.18797581 -6.24006286 32.83366131 -11 32 C-14.78202289 29.9882857 -17.1526054 27.32635677 -19.4375 23.75 C-20.61368143 17.99977967 -20.97698745 12.9539749 -18.3125 7.625 C-12.62579872 1.16982557 -8.42937705 -0.80752015 0 0 Z " fill="#34AEE2" transform="translate(491,318)"/>
<path d="M0 0 C6.93 0 13.86 0 21 0 C21 1.32 21 2.64 21 4 C18.69 4 16.38 4 14 4 C14 15.88 14 27.76 14 40 C16.31 40 18.62 40 21 40 C21 41.32 21 42.64 21 44 C14.07 44 7.14 44 0 44 C0 42.68 0 41.36 0 40 C2.64 40 5.28 40 8 40 C8 28.12 8 16.24 8 4 C5.36 4 2.72 4 0 4 C0 2.68 0 1.36 0 0 Z " fill="#2AABE2" transform="translate(996,251)"/>
<path d="M0 0 C2.66796875 1.546875 2.66796875 1.546875 5 4 C5.53425914 6.77460546 5.78891952 8.97798346 5.8125 11.75 C5.83763672 12.44738281 5.86277344 13.14476562 5.88867188 13.86328125 C5.94728962 15.57491949 5.97657053 17.2875186 6 19 C6.99 19 7.98 19 9 19 C9.33 17.35 9.66 15.7 10 14 C10.66 14 11.32 14 12 14 C12.125 17.375 12.125 17.375 12 21 C10 23 10 23 6.5625 23.3125 C3 23 3 23 1.0625 21.5 C0.711875 21.005 0.36125 20.51 0 20 C-0.33 20.495 -0.66 20.99 -1 21.5 C-4.27766302 23.95824727 -6.9765184 23.38318872 -11 23 C-13 20 -13 20 -12.97265625 17.51953125 C-11.61229661 13.99570808 -9.77447962 13.33681177 -6.4375 11.6875 C-5.42558594 11.17574219 -4.41367188 10.66398437 -3.37109375 10.13671875 C-2.58863281 9.76160156 -1.80617188 9.38648438 -1 9 C-0.957279 7.33388095 -0.95936168 5.66617115 -1 4 C-2.06645115 2.70366379 -2.06645115 2.70366379 -4.5625 2.9375 C-5.366875 2.958125 -6.17125 2.97875 -7 3 C-6.67 4.65 -6.34 6.3 -6 8 C-7.65 8.33 -9.3 8.66 -11 9 C-11.33 7.35 -11.66 5.7 -12 4 C-8.03386905 0.15405483 -5.50483207 -0.78640458 0 0 Z " fill="#37B0E2" transform="translate(1038,327)"/>
<path d="M0 0 C3.59990942 2.76186316 4.86135299 4.26080463 5.70703125 8.76953125 C5.76615982 10.11634866 5.80088987 11.46443526 5.8125 12.8125 C5.83763672 13.50537109 5.86277344 14.19824219 5.88867188 14.91210938 C5.94713263 16.60747122 5.97653047 18.30379287 6 20 C6.99 19.67 7.98 19.34 9 19 C9.33 17.35 9.66 15.7 10 14 C10.66 14 11.32 14 12 14 C12.25 19.625 12.25 19.625 10 23 C3.86454183 23.66932271 3.86454183 23.66932271 1.0625 21.5 C0.711875 21.005 0.36125 20.51 0 20 C-0.33 20.495 -0.66 20.99 -1 21.5 C-4.24685713 23.93514285 -7.01076889 23.31660564 -11 23 C-13 21 -13 21 -13.625 18.6875 C-12.85263876 15.36634668 -12.06330737 15.0799682 -9.25 13.3125 C-6.54776202 11.77622767 -3.7873877 10.37486015 -1 9 C-0.957279 7.33388095 -0.95936168 5.66617115 -1 4 C-2.06645115 2.70366379 -2.06645115 2.70366379 -4.5625 2.9375 C-5.366875 2.958125 -6.17125 2.97875 -7 3 C-6.67 4.65 -6.34 6.3 -6 8 C-7.65 8.33 -9.3 8.66 -11 9 C-11.33 7.35 -11.66 5.7 -12 4 C-8.04979727 0.16950039 -5.49056422 -0.88241211 0 0 Z " fill="#36AFE2" transform="translate(517,327)"/>
<path d="M0 0 C6.84628585 0 8.0698031 0.00888823 13 4 C15.08908513 8.17817025 14.43748035 13.44898918 14 18 C12.17317956 21.38300081 10.89853343 22.51617431 7.5625 24.3125 C5 25 5 25 0 25 C0 16.75 0 8.5 0 0 Z " fill="#F6F4EF" transform="translate(613,322)"/>
<path d="M0 0 C2.76142665 1.01736771 3.68085371 1.36170741 5 4 C5.23172827 6.54615009 5.41894529 9.07396225 5.5625 11.625 C5.60568359 12.33140625 5.64886719 13.0378125 5.69335938 13.765625 C5.79944751 15.51018537 5.90022889 17.25506697 6 19 C6.99 19.33 7.98 19.66 9 20 C9.33 18.02 9.66 16.04 10 14 C10.99 14 11.98 14 13 14 C12.25 20.75 12.25 20.75 10 23 C6.375 23.125 6.375 23.125 3 23 C2.67 22.01 2.34 21.02 2 20 C1.319375 20.495 0.63875 20.99 -0.0625 21.5 C-3.6413106 23.32747775 -6.02991497 23.37453632 -10 23 C-12 21 -12 21 -12.4375 18.625 C-12 16 -12 16 -9.875 13.875 C-7 12 -7 12 -3.75 10.5 C-0.87608823 9.30181316 -0.87608823 9.30181316 -0.125 6.9375 C-0.04045569 5.62706319 0 4.31316121 0 3 C-1.98 3 -3.96 3 -6 3 C-6 3.66 -6 4.32 -6 5 C-6.31478446 6.33783393 -6.64587656 7.67203709 -7 9 C-8.32 9 -9.64 9 -11 9 C-11.8125 7.3125 -11.8125 7.3125 -12 5 C-8.47355135 0.1511331 -5.88263815 -0.7486994 0 0 Z " fill="#34AFE2" transform="translate(932,327)"/>
<path d="M0 0 C4.08140611 3.57123035 4.06398716 5.38392296 5 11 C-0.28 11 -5.56 11 -11 11 C-9.67082039 16.47825081 -9.67082039 16.47825081 -8 18 C-4.54187831 18.33338596 -4.54187831 18.33338596 -1 18 C-0.34 17.01 0.32 16.02 1 15 C1.99 15 2.98 15 4 15 C2.75023244 18.65316671 2.32901247 19.78065836 -1 22 C-4.06526351 22.54531842 -6.93408329 22.54325893 -10 22 C-13.2132442 19.45618167 -15.68983837 17.21544023 -16.2734375 13.046875 C-16.46329043 8.75327801 -16.4342668 5.90417036 -13.625 2.5 C-9.20691891 -1.70769628 -5.76139856 -1.48648184 0 0 Z " fill="#42B4E3" transform="translate(828,328)"/>
<path d="M0 0 C2.16015625 0.6015625 2.16015625 0.6015625 4.66015625 2.7890625 C6.16015625 5.6015625 6.16015625 5.6015625 7.16015625 11.6015625 C1.88015625 11.6015625 -3.39984375 11.6015625 -8.83984375 11.6015625 C-7.84984375 13.9115625 -6.85984375 16.2215625 -5.83984375 18.6015625 C-1.08580363 19.09700447 -1.08580363 19.09700447 2.97265625 17.1015625 C3.36453125 16.6065625 3.75640625 16.1115625 4.16015625 15.6015625 C4.82015625 15.6015625 5.48015625 15.6015625 6.16015625 15.6015625 C4.91038869 19.25472921 4.48916872 20.38222086 1.16015625 22.6015625 C-1.90562432 23.1469729 -4.77276695 23.13964615 -7.83984375 22.6015625 C-11.12159693 20.07187776 -12.53228152 18.52424919 -13.83984375 14.6015625 C-14.37816902 8.89531467 -13.4574221 6.0460159 -9.83984375 1.6015625 C-6.08644927 -0.90070048 -4.31811658 -0.60383419 0 0 Z " fill="#42B3E3" transform="translate(649.83984375,327.3984375)"/>
<path d="M0 0 C4.62 0 9.24 0 14 0 C14 0.66 14 1.32 14 2 C12.68 2 11.36 2 10 2 C10 10.58 10 19.16 10 28 C13.96 28 17.92 28 22 28 C22 24.7 22 21.4 22 18 C23.32 18 24.64 18 26 18 C26 22.29 26 26.58 26 31 C17.42 31 8.84 31 0 31 C0 30.01 0 29.02 0 28 C1.65 28 3.3 28 5 28 C5 19.75 5 11.5 5 3 C3.35 3 1.7 3 0 3 C0 2.01 0 1.02 0 0 Z " fill="#2FADE2" transform="translate(892,319)"/>
<path d="M0 0 C2.17578125 1.4765625 2.17578125 1.4765625 4 4 C4.48539787 6.93324853 4.37774624 9.78726988 4.25 12.75 C4.23195313 13.54277344 4.21390625 14.33554687 4.1953125 15.15234375 C4.14833082 17.10208348 4.07659044 19.05119878 4 21 C5.32 21 6.64 21 8 21 C8 21.66 8 22.32 8 23 C4.04 23 0.08 23 -4 23 C-4 22.34 -4 21.68 -4 21 C-2.68 21 -1.36 21 0 21 C-0.14058476 18.54126232 -0.28722999 16.08314825 -0.4375 13.625 C-0.47681641 12.92632812 -0.51613281 12.22765625 -0.55664062 11.5078125 C-0.74280134 7.62639508 -0.74280134 7.62639508 -2 4 C-4.41645782 3.83312552 -4.41645782 3.83312552 -7 4 C-9.84614024 6.84614024 -9.45579076 9.80369142 -9.625 13.625 C-9.68300781 14.68460937 -9.68300781 14.68460937 -9.7421875 15.765625 C-9.83647724 17.50998524 -9.91932891 19.25495691 -10 21 C-9.01 21 -8.02 21 -7 21 C-7 21.66 -7 22.32 -7 23 C-10.96 23 -14.92 23 -19 23 C-19 22.34 -19 21.68 -19 21 C-17.68 21 -16.36 21 -15 21 C-15 15.06 -15 9.12 -15 3 C-16.32 3 -17.64 3 -19 3 C-19 2.34 -19 1.68 -19 1 C-16.36 1 -13.72 1 -11 1 C-11 1.99 -11 2.98 -11 4 C-10.34 4 -9.68 4 -9 4 C-9 3.34 -9 2.68 -9 2 C-5.50875983 -0.32749345 -4.10777749 -0.50299316 0 0 Z " fill="#33AEE2" transform="translate(854,327)"/>
<path d="M0 0 C1.875 1.5 1.875 1.5 3 3 C3.515625 2.484375 4.03125 1.96875 4.5625 1.4375 C7 0 7 0 10.625 0.125 C14 1 14 1 16 4 C16.22705078 5.90112305 16.22705078 5.90112305 16.1953125 8.01171875 C16.18886719 8.76904297 16.18242188 9.52636719 16.17578125 10.30664062 C16.15902344 11.09232422 16.14226563 11.87800781 16.125 12.6875 C16.11597656 13.48478516 16.10695313 14.28207031 16.09765625 15.10351562 C16.07411585 17.069139 16.03824547 19.03460775 16 21 C17.32 21 18.64 21 20 21 C20 21.66 20 22.32 20 23 C16.37 23 12.74 23 9 23 C9 22.34 9 21.68 9 21 C9.99 21 10.98 21 12 21 C11.67 15.72 11.34 10.44 11 5 C6.39467611 3.54685336 6.39467611 3.54685336 4 5 C3.68758545 7.71446979 3.48663408 10.33909361 3.375 13.0625 C3.31699219 14.20041992 3.31699219 14.20041992 3.2578125 15.36132812 C3.16326438 17.24047195 3.08053244 19.12020336 3 21 C4.32 21 5.64 21 7 21 C7 21.66 7 22.32 7 23 C3.04 23 -0.92 23 -5 23 C-5 22.34 -5 21.68 -5 21 C-3.68 21 -2.36 21 -1 21 C-1.14021805 18.35375716 -1.28689776 15.70815422 -1.4375 13.0625 C-1.47681641 12.30775391 -1.51613281 11.55300781 -1.55664062 10.77539062 C-1.44038024 7.08055813 -1.44038024 7.08055813 -3 4 C-4.99958364 3.95919217 -7.00045254 3.95745644 -9 4 C-8.67 3.01 -8.34 2.02 -8 1 C-5.20129973 -0.39935013 -3.09501208 -0.25265405 0 0 Z " fill="#2DACE2" transform="translate(791,327)"/>
<path d="M0 0 C3.0625 0.4375 3.0625 0.4375 5.23828125 1.91796875 C7.90656047 5.60327945 7.50329055 8.7626268 7.3125 13.1875 C7.29445313 13.98027344 7.27640625 14.77304687 7.2578125 15.58984375 C7.21083082 17.53958348 7.13909044 19.48869878 7.0625 21.4375 C8.3825 21.4375 9.7025 21.4375 11.0625 21.4375 C11.0625 22.0975 11.0625 22.7575 11.0625 23.4375 C7.1025 23.4375 3.1425 23.4375 -0.9375 23.4375 C-0.9375 22.7775 -0.9375 22.1175 -0.9375 21.4375 C0.3825 21.4375 1.7025 21.4375 3.0625 21.4375 C2.92228195 18.79125716 2.77560224 16.14565422 2.625 13.5 C2.58568359 12.74525391 2.54636719 11.99050781 2.50585938 11.21289062 C2.62211976 7.51805813 2.62211976 7.51805813 1.0625 4.4375 C-1.39542029 4.10406449 -1.39542029 4.10406449 -3.9375 4.4375 C-6.36229736 8.07469605 -6.32412577 10.29453482 -6.5625 14.625 C-6.63726563 15.89730469 -6.71203125 17.16960937 -6.7890625 18.48046875 C-6.83804688 19.45628906 -6.88703125 20.43210937 -6.9375 21.4375 C-5.6175 21.4375 -4.2975 21.4375 -2.9375 21.4375 C-2.9375 22.0975 -2.9375 22.7575 -2.9375 23.4375 C-6.8975 23.4375 -10.8575 23.4375 -14.9375 23.4375 C-14.9375 22.7775 -14.9375 22.1175 -14.9375 21.4375 C-13.6175 21.4375 -12.2975 21.4375 -10.9375 21.4375 C-10.9375 15.4975 -10.9375 9.5575 -10.9375 3.4375 C-12.2575 3.4375 -13.5775 3.4375 -14.9375 3.4375 C-14.9375 2.7775 -14.9375 2.1175 -14.9375 1.4375 C-12.2975 1.4375 -9.6575 1.4375 -6.9375 1.4375 C-6.6075 2.0975 -6.2775 2.7575 -5.9375 3.4375 C-5.56625 2.9425 -5.195 2.4475 -4.8125 1.9375 C-2.9375 0.4375 -2.9375 0.4375 0 0 Z " fill="#2CACE2" transform="translate(960.9375,326.5625)"/>
<path d="M0 0 C10.64667006 -0.43162176 10.64667006 -0.43162176 16 3 C17.86618552 4.86618552 17.3485526 7.49777654 17.5234375 9.9921875 C17 12 17 12 14.87109375 13.74609375 C9.95511611 15.89307174 5.30824511 15.17499709 0 15 C0 10.05 0 5.1 0 0 Z " fill="#F5F3EF" transform="translate(964,255)"/>
<path d="M0 0 C10.74695122 -0.42987805 10.74695122 -0.42987805 15 3 C16 4 16 4 16.25 7.875 C16.2020808 11.70169024 16.2020808 11.70169024 14.6875 13.9375 C11.39585455 16.0100175 8.59067193 16.11156717 4.8125 16.0625 C3.224375 16.041875 1.63625 16.02125 0 16 C0 10.72 0 5.44 0 0 Z " fill="#F6F4EF" transform="translate(1033,255)"/>
<path d="M0 0 C10.84076433 -0.43949045 10.84076433 -0.43949045 16 3 C17.39935013 5.79870027 17.25265405 7.90498792 17 11 C15.14657225 13.55949546 14.06243607 13.97918798 11 15 C7.32893957 15.13281695 3.67480286 15.04323297 0 15 C0 10.05 0 5.1 0 0 Z " fill="#F5F4EF" transform="translate(579,255)"/>
<path d="M0 0 C0.66 0 1.32 0 2 0 C2 2.97 2 5.94 2 9 C4.64 9 7.28 9 10 9 C10 9.66 10 10.32 10 11 C7.36 11 4.72 11 2 11 C2.33 16.28 2.66 21.56 3 27 C4.32 27 5.64 27 7 27 C7.33 25.02 7.66 23.04 8 21 C8.99 21 9.98 21 11 21 C11.2145758 24.14711179 11.23318878 26.44617664 10 29.375 C7.30812291 31.56215014 5.32175925 31.47997334 1.9375 31.53125 C0 31 0 31 -1.73828125 29.484375 C-3.53187388 25.95271891 -3.32047935 22.60981097 -3.1875 18.75 C-3.16719727 17.63238281 -3.16719727 17.63238281 -3.14648438 16.4921875 C-3.11127204 14.66114584 -3.05746851 12.83047831 -3 11 C-4.32 10.67 -5.64 10.34 -7 10 C-6.21625 9.278125 -5.4325 8.55625 -4.625 7.8125 C-2.15587562 5.16700959 -1.06739722 3.39626389 0 0 Z " fill="#3BB1E3" transform="translate(869,319)"/>
<path d="M0 0 C4.29 0 8.58 0 13 0 C13 0.66 13 1.32 13 2 C12.01 2 11.02 2 10 2 C10.64200436 4.14698202 11.28870746 6.29255953 11.9375 8.4375 C12.29714844 9.63246094 12.65679688 10.82742188 13.02734375 12.05859375 C13.70889142 14.85867545 13.70889142 14.85867545 15 16 C16.32 11.71 17.64 7.42 19 3 C18.34 2.67 17.68 2.34 17 2 C17 1.34 17 0.68 17 0 C20.3 0 23.6 0 27 0 C27 0.66 27 1.32 27 2 C25.68 2 24.36 2 23 2 C22.773125 3.2375 22.54625 4.475 22.3125 5.75 C20.98854723 11.80925829 18.50521958 17.34891308 16 23 C14.12890625 22.75390625 14.12890625 22.75390625 12 22 C10.83984375 20.21484375 10.83984375 20.21484375 9.9375 17.9375 C9.44830078 16.72513672 9.44830078 16.72513672 8.94921875 15.48828125 C8.63597656 14.66714844 8.32273437 13.84601563 8 13 C7.69707031 12.25105469 7.39414062 11.50210937 7.08203125 10.73046875 C5.88144764 7.69237221 5 5.29359726 5 2 C3.35 2 1.7 2 0 2 C0 1.34 0 0.68 0 0 Z " fill="#33AEE2" transform="translate(657,328)"/>
<path d="M0 0 C3.3185533 0.55309222 4.0469373 0.86365006 6 3.5 C6.82574879 8.37266175 6.92540108 12.99193898 4.3125 17.25 C2 18.5 2 18.5 -0.5625 18.5625 C-3.87331498 17.11932424 -4.62712305 15.82380734 -6 12.5 C-6.4105244 8.66843896 -6.25381262 6.16273295 -4.875 2.5625 C-3 0.5 -3 0.5 0 0 Z " fill="#F1F2EF" transform="translate(733,329.5)"/>
<path d="M0 0 C2.5 0.5 2.5 0.5 4.3125 2 C5.97702696 5.50426729 6.06352933 8.72868831 5.5 12.5 C4 16 4 16 2.5 18.5 C0.1875 18.8125 0.1875 18.8125 -2.5 18.5 C-5.26149872 15.54805309 -5.72665432 12.84608621 -5.875 8.9375 C-5.76628403 6.10143113 -5.52153931 4.54647957 -4.3125 1.9375 C-2.5 0.5 -2.5 0.5 0 0 Z " fill="#F1F2EF" transform="translate(759.5,329.5)"/>
<path d="M0 0 C2.5 0.5625 2.5 0.5625 4.1328125 2.28515625 C5.72645287 4.93970578 5.90311346 6.48876155 5.875 9.5625 C5.88273437 10.408125 5.89046875 11.25375 5.8984375 12.125 C5.4291142 14.99615432 4.39489101 16.39691027 2.5 18.5625 C-0.80133235 18.2948244 -2.12503298 18.0021165 -4.3125 15.4375 C-6.21547011 10.83030921 -6.17780881 7.23918495 -4.3125 2.625 C-2.5 0.5625 -2.5 0.5625 0 0 Z " fill="#F0F1EF" transform="translate(1061.5,329.4375)"/>
<path d="M0 0 C2.5 0.5625 2.5 0.5625 4.1328125 2.28515625 C5.72645287 4.93970578 5.90311346 6.48876155 5.875 9.5625 C5.88273438 10.408125 5.89046875 11.25375 5.8984375 12.125 C5.4291142 14.99615432 4.39489101 16.39691027 2.5 18.5625 C-0.80133235 18.2948244 -2.12503298 18.0021165 -4.3125 15.4375 C-6.21547011 10.83030921 -6.17780881 7.23918495 -4.3125 2.625 C-2.5 0.5625 -2.5 0.5625 0 0 Z " fill="#F0F1EF" transform="translate(983.5,329.4375)"/>
<path d="M0 0 C2.97 0 5.94 0 9 0 C9 9.57 9 19.14 9 29 C10.65 29 12.3 29 14 29 C14 29.66 14 30.32 14 31 C9.38 31 4.76 31 0 31 C0 30.34 0 29.68 0 29 C1.65 29 3.3 29 5 29 C5 20.09 5 11.18 5 2 C3.35 2 1.7 2 0 2 C0 1.34 0 0.68 0 0 Z " fill="#2AABE2" transform="translate(707,319)"/>
<path d="M0 0 C1.051875 0.12375 2.10375 0.2475 3.1875 0.375 C2.1975 1.035 1.2075 1.695 0.1875 2.375 C-2.41901217 4.75152581 -3.68287741 5.98613222 -4.8125 9.375 C-1.1825 9.375 2.4475 9.375 6.1875 9.375 C6.1875 9.705 6.1875 10.035 6.1875 10.375 C2.5575 10.375 -1.0725 10.375 -4.8125 10.375 C-4.1525 13.015 -3.4925 15.655 -2.8125 18.375 C0.4875 18.375 3.7875 18.375 7.1875 18.375 C7.5175 17.385 7.8475 16.395 8.1875 15.375 C9.1775 15.705 10.1675 16.035 11.1875 16.375 C8.4375 21.25 8.4375 21.25 6.1875 22.375 C1.55536507 22.93012815 -1.79422127 23.0114242 -5.8125 20.5 C-9.27525815 16.82081946 -9.21626694 13.83046555 -9.15234375 8.9296875 C-8.41105078 3.3572093 -5.72522106 0.5631365 0 0 Z " fill="#32AEE2" transform="translate(1085.8125,327.625)"/>
<path d="M0 0 C1.051875 0.12375 2.10375 0.2475 3.1875 0.375 C2.1975 1.035 1.2075 1.695 0.1875 2.375 C-2.41901217 4.75152581 -3.68287741 5.98613222 -4.8125 9.375 C-1.1825 9.375 2.4475 9.375 6.1875 9.375 C6.1875 9.705 6.1875 10.035 6.1875 10.375 C2.5575 10.375 -1.0725 10.375 -4.8125 10.375 C-4.1525 13.015 -3.4925 15.655 -2.8125 18.375 C0.4875 18.375 3.7875 18.375 7.1875 18.375 C7.5175 17.385 7.8475 16.395 8.1875 15.375 C9.1775 15.705 10.1675 16.035 11.1875 16.375 C8.4375 21.25 8.4375 21.25 6.1875 22.375 C1.55536507 22.93012815 -1.79422127 23.0114242 -5.8125 20.5 C-9.27525815 16.82081946 -9.21626694 13.83046555 -9.15234375 8.9296875 C-8.41105078 3.3572093 -5.72522106 0.5631365 0 0 Z " fill="#32AEE2" transform="translate(693.8125,327.625)"/>
<path d="M0 0 C1.051875 0.12375 2.10375 0.2475 3.1875 0.375 C2.1975 1.035 1.2075 1.695 0.1875 2.375 C-2.41901217 4.75152581 -3.68287741 5.98613222 -4.8125 9.375 C-1.1825 9.375 2.4475 9.375 6.1875 9.375 C6.1875 9.705 6.1875 10.035 6.1875 10.375 C2.5575 10.375 -1.0725 10.375 -4.8125 10.375 C-4.1525 13.015 -3.4925 15.655 -2.8125 18.375 C0.4875 18.375 3.7875 18.375 7.1875 18.375 C7.5175 17.385 7.8475 16.395 8.1875 15.375 C9.1775 15.705 10.1675 16.035 11.1875 16.375 C8.4375 21.25 8.4375 21.25 6.1875 22.375 C1.55536507 22.93012815 -1.79422127 23.0114242 -5.8125 20.5 C-9.27525815 16.82081946 -9.21626694 13.83046555 -9.15234375 8.9296875 C-8.41105078 3.3572093 -5.72522106 0.5631365 0 0 Z " fill="#32AEE2" transform="translate(578.8125,327.625)"/>
<path d="M0 0 C4.6613779 -0.32521241 7.24064446 0.18048334 11 3 C13 6 13 6 13 12 C8.05 12 3.1 12 -2 12 C-2.33 12.99 -2.66 13.98 -3 15 C-3.61538462 7.73846154 -3.61538462 7.73846154 -0.5 4 C0.325 3.34 1.15 2.68 2 2 C1.34 1.34 0.68 0.68 0 0 Z " fill="#54BAE4" transform="translate(1084,327)"/>
<path d="M0 0 C4.6613779 -0.32521241 7.24064446 0.18048334 11 3 C13 6 13 6 13 12 C8.05 12 3.1 12 -2 12 C-2.33 12.99 -2.66 13.98 -3 15 C-3.61538462 7.73846154 -3.61538462 7.73846154 -0.5 4 C0.325 3.34 1.15 2.68 2 2 C1.34 1.34 0.68 0.68 0 0 Z " fill="#54BAE4" transform="translate(692,327)"/>
<path d="M0 0 C4.6613779 -0.32521241 7.24064446 0.18048334 11 3 C13 6 13 6 13 12 C8.05 12 3.1 12 -2 12 C-2.33 12.99 -2.66 13.98 -3 15 C-3.61538462 7.73846154 -3.61538462 7.73846154 -0.5 4 C0.325 3.34 1.15 2.68 2 2 C1.34 1.34 0.68 0.68 0 0 Z " fill="#54BAE4" transform="translate(577,327)"/>
<path d="M0 0 C0.11226158 4.04141701 0.06763864 7.24153636 -2.0625 10.75 C-5.31200963 12.84645783 -8.1922236 12.30220448 -12 12 C-14 10 -14 10 -14.625 7.6875 C-13.84477947 4.33255171 -12.97470854 4.03106784 -10.125 2.25 C-4.02151427 -1.20645428 -4.02151427 -1.20645428 0 0 Z " fill="#3BB1E3" transform="translate(518,338)"/>
<path d="M0 0 C-0.08746284 1.43861294 -0.19565348 2.87597508 -0.3125 4.3125 C-0.37050781 5.11300781 -0.42851563 5.91351563 -0.48828125 6.73828125 C-1.09958547 9.44015256 -1.76151898 10.39013351 -4 12 C-6.84667807 12.5749726 -9.04838397 12.28110629 -12 12 C-14 9 -14 9 -13.89453125 6.4921875 C-12.75831709 3.32666508 -11.62804403 2.67468114 -8.6875 1.125 C-7.90761719 0.69445312 -7.12773438 0.26390625 -6.32421875 -0.1796875 C-3.71322242 -1.10121562 -2.55649118 -0.94771526 0 0 Z " fill="#40B3E3" transform="translate(1039,338)"/>
<path d="M0 0 C2.64 0 5.28 0 8 0 C8 0.99 8 1.98 8 3 C8.66 3 9.32 3 10 3 C9.67 8.61 9.34 14.22 9 20 C9.99 20 10.98 20 12 20 C12 20.66 12 21.32 12 22 C8.04 22 4.08 22 0 22 C0 21.34 0 20.68 0 20 C1.32 20 2.64 20 4 20 C4 14.06 4 8.12 4 2 C2.68 2 1.36 2 0 2 C0 1.34 0 0.68 0 0 Z " fill="#37B0E2" transform="translate(772,328)"/>
<path d="M0 0 C0.04254356 1.99954746 0.04080783 4.00041636 0 6 C-0.33 6.33 -0.66 6.66 -1 7 C-0.34 7.66 0.32 8.32 1 9 C-3.08473242 11.97071449 -5.9834834 12.47325628 -11 12 C-13 10 -13 10 -13.4375 7.625 C-13 5 -13 5 -10.625 2.75 C-6.72143892 0.14762595 -4.68583646 -0.10186601 0 0 Z " fill="#39B0E3" transform="translate(933,338)"/>
<path d="M0 0 C2.64 0 5.28 0 8 0 C8.95946595 4.61965088 8.96102244 8.68129125 8.5625 13.375 C8.46066406 14.62023437 8.35882812 15.86546875 8.25390625 17.1484375 C8.17011719 18.08945312 8.08632813 19.03046875 8 20 C9.32 20 10.64 20 12 20 C12 20.66 12 21.32 12 22 C8.04 22 4.08 22 0 22 C0 21.34 0 20.68 0 20 C1.32 20 2.64 20 4 20 C4 14.06 4 8.12 4 2 C2.68 2 1.36 2 0 2 C0 1.34 0 0.68 0 0 Z " fill="#2AABE2" transform="translate(530,328)"/>
<path d="M0 0 C2.64 0 5.28 0 8 0 C8.06058594 1.20398438 8.12117187 2.40796875 8.18359375 3.6484375 C8.26799732 5.22397077 8.35264541 6.79949096 8.4375 8.375 C8.47681641 9.1690625 8.51613281 9.963125 8.55664062 10.78125 C8.68893404 15.02601221 8.68893404 15.02601221 10 19 C12.02463255 19.65213292 12.02463255 19.65213292 14 20 C14 20.66 14 21.32 14 22 C10.6875 22.25 10.6875 22.25 7 22 C4.12816335 19.49366983 3.99615734 17.94896941 3.70703125 14.109375 C3.72685055 12.65595991 3.76245155 11.20268833 3.8125 9.75 C3.83280273 8.63238281 3.83280273 8.63238281 3.85351562 7.4921875 C3.88872796 5.66114584 3.94253149 3.83047831 4 2 C2.68 2 1.36 2 0 2 C0 1.34 0 0.68 0 0 Z " fill="#2AABE2" transform="translate(997,328)"/>
<path d="M0 0 C0.81487171 2.24916619 1.62696918 4.49926978 2.4375 6.75 C2.66759766 7.38421875 2.89769531 8.0184375 3.13476562 8.671875 C6.40567708 17.77354167 6.40567708 17.77354167 4 24 C3.67 24 3.34 24 3 24 C2.79375 22.72125 2.5875 21.4425 2.375 20.125 C1.29989651 15.12893083 -0.95323585 11.39105601 -3.7578125 7.1640625 C-5 5 -5 5 -5 2 C-2 0 -2 0 0 0 Z " fill="#BEE4EA" transform="translate(231,238)"/>
<path d="M0 0 C2.3125 1.9375 2.3125 1.9375 4 4 C4 4.66 4 5.32 4 6 C1.17998673 7.41000664 -0.87007255 7.24548451 -4 7 C-6.875 5.5 -6.875 5.5 -9 4 C-6.80978249 -0.84976734 -5.17481955 -1.60172986 0 0 Z " fill="#E6F2EC" transform="translate(634,285)"/>
<path d="M0 0 C0.99 0.103125 1.98 0.20625 3 0.3125 C5 3.3125 5 3.3125 5 6.3125 C1.37 6.3125 -2.26 6.3125 -6 6.3125 C-4.54010695 0.47292781 -4.54010695 0.47292781 0 0 Z " fill="#F0F1EF" transform="translate(647,329.6875)"/>
<path d="M0 0 C2.5625 0.3125 2.5625 0.3125 4.375 1.625 C5.5625 3.3125 5.5625 3.3125 5.5625 6.3125 C1.9325 6.3125 -1.6975 6.3125 -5.4375 6.3125 C-3.98716887 0.5111755 -3.98716887 0.5111755 0 0 Z " fill="#F3F3EF" transform="translate(822.4375,329.6875)"/>
<path d="M0 0 C3.0625 0.1875 3.0625 0.1875 5.0625 2.1875 C5.0625 3.5075 5.0625 4.8275 5.0625 6.1875 C1.7625 6.1875 -1.5375 6.1875 -4.9375 6.1875 C-3.87127483 0.24710265 -3.87127483 0.24710265 0 0 Z " fill="#F3F3EF" transform="translate(1086.9375,329.8125)"/>
<path d="M0 0 C3.0625 0.1875 3.0625 0.1875 5.0625 2.1875 C5.0625 3.5075 5.0625 4.8275 5.0625 6.1875 C1.7625 6.1875 -1.5375 6.1875 -4.9375 6.1875 C-3.87127483 0.24710265 -3.87127483 0.24710265 0 0 Z " fill="#F3F3EF" transform="translate(694.9375,329.8125)"/>
<path d="M0 0 C3.0625 0.1875 3.0625 0.1875 5.0625 2.1875 C5.0625 3.5075 5.0625 4.8275 5.0625 6.1875 C1.7625 6.1875 -1.5375 6.1875 -4.9375 6.1875 C-3.87127483 0.24710265 -3.87127483 0.24710265 0 0 Z " fill="#F3F3EF" transform="translate(579.9375,329.8125)"/>
<path d="M0 0 C2.70459318 0.27045932 3.81265765 0.81265765 5.75 2.75 C7 5 7 5 7 10 C2.05 10 -2.9 10 -8 10 C-8 9.67 -8 9.34 -8 9 C-4.37 9 -0.74 9 3 9 C1.27468064 4.18884294 1.27468064 4.18884294 -1 1 C-0.67 0.67 -0.34 0.34 0 0 Z " fill="#31AEE2" transform="translate(825,328)"/>
<path d="M0 0 C2.60908002 1.1782942 3.55114842 2.37956716 4.9375 4.875 C4.9375 6.525 4.9375 8.175 4.9375 9.875 C0.3175 9.875 -4.3025 9.875 -9.0625 9.875 C-9.0625 9.545 -9.0625 9.215 -9.0625 8.875 C-5.7625 8.875 -2.4625 8.875 0.9375 8.875 C0.2775 6.895 -0.3825 4.915 -1.0625 2.875 C-2.7125 2.545 -4.3625 2.215 -6.0625 1.875 C-3.89659519 0.55998637 -2.56128708 -0.15522952 0 0 Z " fill="#32AEE2" transform="translate(651.0625,328.125)"/>
<path d="M0 0 C4.51478398 0.53115106 7.34666857 2.36620292 11 5 C9.95125002 7.62187494 9.35068687 8.79371361 6.875 10.25 C6.25625 10.4975 5.6375 10.745 5 11 C4.67 10.34 4.34 9.68 4 9 C3.34 9 2.68 9 2 9 C2.57584432 6.61435923 3.22227595 4.33317216 4 2 C2.68 1.34 1.36 0.68 0 0 Z " fill="#56DCD1" transform="translate(353,418)"/>
<path d="M0 0 C0.36 5.4 0.36 5.4 -1.125 7.875 C-3.78034983 9.4682099 -5.96789518 9.20214032 -9 9 C-8.61341103 6.48717169 -8.29480854 5.27457658 -6.40625 3.515625 C-5.7771875 3.09796875 -5.148125 2.6803125 -4.5 2.25 C-3.8709375 1.82203125 -3.241875 1.3940625 -2.59375 0.953125 C-1 0 -1 0 0 0 Z " fill="#E6EEEE" transform="translate(933,338)"/>
<path d="M0 0 C0.1875 2.875 0.1875 2.875 0 6 C-3.22791555 8.1519437 -4.28400809 8.20086443 -8 8 C-7.8125 5.6875 -7.8125 5.6875 -7 3 C-2.96551724 0 -2.96551724 0 0 0 Z " fill="#EDF0EF" transform="translate(1038,339)"/>
<path d="M0 0 C0.36075949 4.44936709 0.36075949 4.44936709 -1.1875 6.8125 C-3.55982525 8.36678206 -5.22041345 8.22537188 -8 8 C-7.8125 5.6875 -7.8125 5.6875 -7 3 C-2.96551724 0 -2.96551724 0 0 0 Z " fill="#EDEFEE" transform="translate(517,339)"/>
<path d="M0 0 C0.66 0 1.32 0 2 0 C2 0.66 2 1.32 2 2 C2.99 2.33 3.98 2.66 5 3 C6.1875 5.0625 6.1875 5.0625 7 7 C7.99 7 8.98 7 10 7 C10.33 8.65 10.66 10.3 11 12 C5.53304842 8.53058842 2.84990486 5.81380592 0 0 Z " fill="#60DBCF" transform="translate(129,293)"/>
<path d="M0 0 C0.33 0.99 0.66 1.98 1 3 C-0.28479041 4.50589388 -1.57804082 6.00457375 -2.875 7.5 C-3.59429687 8.3353125 -4.31359375 9.170625 -5.0546875 10.03125 C-5.69664062 10.6809375 -6.33859375 11.330625 -7 12 C-7.66 12 -8.32 12 -9 12 C-9 10 -9 10 -6.75 7.6875 C-5.38875 6.3571875 -5.38875 6.3571875 -4 5 C-2.64444707 3.35135455 -1.30368347 1.68996005 0 0 Z " fill="#5EDCCE" transform="translate(333,344)"/>
<path d="M0 0 C0.66 1.32 1.32 2.64 2 4 C-0.64 6.31 -3.28 8.62 -6 11 C-6.66 10.67 -7.32 10.34 -8 10 C-7.0479279 8.99403703 -6.08812654 7.99538437 -5.125 7 C-4.32449219 6.1646875 -4.32449219 6.1646875 -3.5078125 5.3125 C-2 4 -2 4 0 4 C0 2.68 0 1.36 0 0 Z " fill="#60DDD3" transform="translate(208,217)"/>
<path d="M0 0 C-2 3 -2 3 -4.9375 3.625 C-5.948125 3.74875 -6.95875 3.8725 -8 4 C-8.99 4.33 -9.98 4.66 -11 5 C-9.07089686 -0.78730941 -5.38986894 -0.20339128 0 0 Z " fill="#45B5E3" transform="translate(932,327)"/>
<path d="M0 0 C2.64 0 5.28 0 8 0 C8.33 0.66 8.66 1.32 9 2 C9.99 1.67 10.98 1.34 12 1 C12.99 1.66 13.98 2.32 15 3 C13.02253397 3.73080266 11.01927511 4.39421747 9 5 C8.34 4.67 7.68 4.34 7 4 C7 3.01 7 2.02 7 1 C4.69 1 2.38 1 0 1 C0 0.67 0 0.34 0 0 Z " fill="#55BAE5" transform="translate(746,327)"/>
<path d="M0 0 C0.66 0 1.32 0 2 0 C0.52307692 4.67692308 0.52307692 4.67692308 -2.125 6.3125 C-3.053125 6.6528125 -3.053125 6.6528125 -4 7 C-2.92598892 4.08482708 -2.22189824 2.22189824 0 0 Z " fill="#31AEE2" transform="translate(654,343)"/>
<path d="M0 0 C0 1.65 0 3.3 0 5 C-0.33 3.68 -0.66 2.36 -1 1 C-2.98 1.99 -4.96 2.98 -7 4 C-6.625 2.0625 -6.625 2.0625 -6 0 C-3.50907189 -1.24546405 -2.58919267 -0.7767578 0 0 Z " fill="#49B6E4" transform="translate(518,338)"/>
<path d="M0 0 C2 2 2 2 2.1953125 3.9453125 C2.13020833 5.96354167 2.06510417 7.98177083 2 10 C1.01 9.67 0.02 9.34 -1 9 C-0.67 6.03 -0.34 3.06 0 0 Z " fill="#63DCD3" transform="translate(351,172)"/>
<path d="M0 0 C1.98 0 3.96 0 6 0 C6 2.31 6 4.62 6 7 C5.7525 6.360625 5.505 5.72125 5.25 5.0625 C4.18437567 2.81258459 4.18437567 2.81258459 1.875 2.25 C0.946875 2.12625 0.946875 2.12625 0 2 C0 1.34 0 0.68 0 0 Z " fill="#5BDDD3" transform="translate(387,287)"/>
<path d="M0 0 C0.66 0.33 1.32 0.66 2 1 C2.625 3.5625 2.625 3.5625 3 6 C2.34 6 1.68 6 1 6 C0.67 6.66 0.34 7.32 0 8 C-1.09658936 4.71023192 -0.79953138 3.28696233 0 0 Z " fill="#64DAD1" transform="translate(338,384)"/>
<path d="M0 0 C-0.33 1.32 -0.66 2.64 -1 4 C-1.33 3.34 -1.66 2.68 -2 2 C-2.99 2.66 -3.98 3.32 -5 4 C-5 3.34 -5 2.68 -5 2 C-6.32 1.67 -7.64 1.34 -9 1 C-5.846632 0.29925156 -3.27275026 0 0 0 Z " fill="#5BBCE5" transform="translate(1016,346)"/>
</svg>
