<?xml version="1.0" encoding="UTF-8"?>
<svg version="1.1" xmlns="http://www.w3.org/2000/svg" width="500" height="500">
<path d="M0 0 C1.42159374 -0.00599118 2.84318423 -0.01279808 4.26477051 -0.02035522 C8.11209686 -0.03796424 11.95933414 -0.04270849 15.80669689 -0.0439868 C18.21511692 -0.04541205 20.62351457 -0.04968876 23.03192902 -0.05498123 C31.44773283 -0.0734659 39.86347344 -0.08165396 48.27929688 -0.08007812 C56.10178019 -0.07887772 63.92398716 -0.0999641 71.74640059 -0.13156545 C78.48042899 -0.15779228 85.21436749 -0.16844272 91.94844651 -0.16716731 C95.96235017 -0.16665948 99.97600814 -0.17224269 103.98986053 -0.19352341 C107.76899271 -0.21301387 111.5476476 -0.21295743 115.32679749 -0.19849014 C117.35833066 -0.19543169 119.38986444 -0.21200321 121.42132568 -0.22937012 C132.2058796 -0.15602318 141.26029439 1.70847922 149.19628906 9.38427734 C156.14380763 16.81934107 159.09914753 23.51436408 160.41503906 33.66552734 C159.14854087 44.15936952 155.7025599 52.88320217 147.97753906 60.29052734 C147.31753906 60.29052734 146.65753906 60.29052734 145.97753906 60.29052734 C145.6875 61.26892578 145.6875 61.26892578 145.39160156 62.26708984 C145.00101562 63.57806641 145.00101562 63.57806641 144.60253906 64.91552734 C144.19648437 66.28644531 144.19648437 66.28644531 143.78222656 67.68505859 C143.16602361 69.68024001 142.46478271 71.64933167 141.72753906 73.60302734 C140.84549123 76.76369874 140.97429591 78.17814043 141.97753906 81.29052734 C144.04951454 83.59161972 144.04951454 83.59161972 146.66503906 85.66552734 C150.48455949 88.89909862 153.56507671 92.00755724 156.33300781 96.17333984 C158.08708951 97.60598198 158.08708951 97.60598198 161.16894531 97.13427734 C165.85248391 96.09669341 170.22953295 94.58455895 174.72363281 92.93115234 C179.66615513 91.1867327 179.66615513 91.1867327 182.97753906 92.29052734 C184.29614258 94.0847168 184.29614258 94.0847168 185.60644531 96.40380859 C186.08404297 97.23976563 186.56164062 98.07572266 187.05371094 98.93701172 C187.54419922 99.81679687 188.0346875 100.69658203 188.54003906 101.60302734 C189.03439453 102.47121094 189.52875 103.33939453 190.03808594 104.23388672 C195.979926 114.71050053 195.979926 114.71050053 195.96972656 117.18896484 C194.42322489 120.46462587 191.78128532 122.56927184 189.10253906 124.91552734 C188.55984375 125.40537109 188.01714844 125.89521484 187.45800781 126.39990234 C185.04789598 128.55662834 182.67245383 130.4939175 179.97753906 132.29052734 C181.87375932 140.98153687 183.93022339 149.63415865 185.97753906 158.29052734 C187.05132812 158.55607422 188.12511719 158.82162109 189.23144531 159.09521484 C190.66765916 159.45192155 192.10385618 159.808696 193.54003906 160.16552734 C194.24451172 160.33955078 194.94898438 160.51357422 195.67480469 160.69287109 C200.13778904 161.8034755 204.56240959 163.00253951 208.97753906 164.29052734 C210.21551768 169.0950634 210.1252819 173.80420408 210.10253906 178.72802734 C210.10640625 179.56140625 210.11027344 180.39478516 210.11425781 181.25341797 C210.1072078 185.71255321 209.87670697 189.9017316 208.97753906 194.29052734 C201.67924443 196.17153111 194.38528416 197.89747793 186.97753906 199.29052734 C185.26477943 204.29210712 183.74475601 209.33437925 182.29003906 214.41552734 C182.05220703 215.21345703 181.814375 216.01138672 181.56933594 216.83349609 C181.34955078 217.60564453 181.12976563 218.37779297 180.90332031 219.17333984 C180.70134033 219.86830566 180.49936035 220.56327148 180.29125977 221.27929688 C179.92524913 223.62575263 180.16265398 225.06769392 180.97753906 227.29052734 C183.10153378 229.59722277 183.10153378 229.59722277 185.72753906 231.79052734 C186.58863281 232.54333984 187.44972656 233.29615234 188.33691406 234.07177734 C190.85302052 236.1859023 193.40057474 238.25120306 195.97753906 240.29052734 C195.40576544 245.26205057 193.12971999 248.98088918 190.66503906 253.22802734 C190.27380859 253.91832031 189.88257813 254.60861328 189.47949219 255.31982422 C187.13264815 259.4258283 184.64711377 263.38696158 181.97753906 267.29052734 C175.89149084 265.6865408 169.92047234 264.02124672 164.04785156 261.74365234 C161.21974027 261.12466949 159.71813568 261.2928177 156.97753906 262.29052734 C154.97943086 264.18815596 153.24127225 266.01075562 151.47753906 268.10302734 C150.55410605 269.17519256 149.62706146 270.24425865 148.69628906 271.31005859 C148.25027344 271.82777832 147.80425781 272.34549805 147.34472656 272.87890625 C145.97753906 274.29052734 145.97753906 274.29052734 143.07128906 276.23974609 C142.38035156 276.91650391 141.68941406 277.59326172 140.97753906 278.29052734 C140.97753906 283.56794718 142.94858475 288.00615876 144.97753906 292.79052734 C147.77492248 299.6880409 148.60553426 305.40148404 148.48144531 312.88818359 C149.138464 317.39419363 150.69881753 320.14333331 153.97753906 323.29052734 C156.57019077 324.85821673 159.25498319 325.89891359 162.10253906 326.91552734 C169.46713236 329.59597391 169.46713236 329.59597391 171.96972656 333.00146484 C172.30230469 333.75685547 172.63488281 334.51224609 172.97753906 335.29052734 C165.23772883 341.6749791 157.17918297 347.52337716 148.97753906 353.29052734 C148.45546875 352.90380859 147.93339844 352.51708984 147.39550781 352.11865234 C143.12275332 349.09554759 139.31349952 346.94320984 134.29003906 345.41552734 C128.53588391 343.5109262 125.91866235 340.47678292 122.97753906 335.29052734 C121.72142427 332.77829777 121.97150527 330.68983437 121.99389648 327.93237305 C121.94433001 321.44212409 121.4934912 316.75817484 117.16503906 311.60302734 C111.45910165 306.21560318 104.52210685 302.29052734 96.54003906 302.29052734 C95.36441406 302.62052734 94.18878906 302.95052734 92.97753906 303.29052734 C91.90761719 303.46970703 90.83769531 303.64888672 89.73535156 303.83349609 C88.55714844 304.04619141 87.37894531 304.25888672 86.16503906 304.47802734 C85.04484375 304.67783203 83.92464844 304.87763672 82.77050781 305.08349609 C79.75985732 306.02878839 79.75985732 306.02878839 78.68066406 308.88818359 C77.73120459 313.48251251 76.91237111 318.08181394 76.20996094 322.72021484 C75.89220464 324.59515257 75.44265266 326.44661034 74.97753906 328.29052734 C70.10627589 331.53803613 64.70163879 330.61838169 58.97753906 330.60302734 C57.77613281 330.61914062 56.57472656 330.63525391 55.33691406 330.65185547 C54.18707031 330.6525 53.03722656 330.65314453 51.85253906 330.65380859 C50.79808594 330.65678955 49.74363281 330.65977051 48.65722656 330.6628418 C45.97753906 330.29052734 45.97753906 330.29052734 44.18334961 329.05957031 C42.71522896 326.90569256 42.28273169 325.18415637 41.80957031 322.62255859 C41.55336914 321.28354492 41.55336914 321.28354492 41.29199219 319.91748047 C41.04352539 318.52432617 41.04352539 318.52432617 40.79003906 317.10302734 C40.52416992 315.6924707 40.52416992 315.6924707 40.25292969 314.25341797 C39.8173383 311.93418814 39.39266021 309.61349326 38.97753906 307.29052734 C34.14371875 305.65882572 29.29250965 304.09821702 24.41503906 302.60302734 C23.67318359 302.36519531 22.93132812 302.12736328 22.16699219 301.88232422 C16.58295894 300.14343726 16.58295894 300.14343726 10.97753906 301.29052734 C8.57224556 303.39118387 8.57224556 303.39118387 6.41503906 306.04052734 C5.67125 306.90162109 4.92746094 307.76271484 4.16113281 308.64990234 C2.07241915 311.17578863 0.01431094 313.72262448 -2.02246094 316.29052734 C-6.97596334 315.71117034 -10.7120361 313.47805524 -14.95996094 311.04052734 C-15.65025391 310.65767578 -16.34054688 310.27482422 -17.05175781 309.88037109 C-21.45105757 307.38673957 -25.23088573 304.63708199 -29.02246094 301.29052734 C-28.83546631 300.74114502 -28.64847168 300.1917627 -28.45581055 299.62573242 C-27.61143205 297.12215941 -26.78558296 294.61284508 -25.95996094 292.10302734 C-25.66541016 291.23871094 -25.37085938 290.37439453 -25.06738281 289.48388672 C-24.65649414 288.2222168 -24.65649414 288.2222168 -24.23730469 286.93505859 C-23.98070068 286.16524658 -23.72409668 285.39543457 -23.4597168 284.60229492 C-22.93631754 281.83508804 -23.21788393 279.97904636 -24.02246094 277.29052734 C-26.00798375 274.79716081 -26.00798375 274.79716081 -29.02246094 273.29052734 C-31.86639889 273.16018019 -34.23205828 273.22631394 -37.02246094 273.54052734 C-38.56000765 273.66940489 -40.09777385 273.79568902 -41.63574219 273.91943359 C-42.76423584 274.01828857 -42.76423584 274.01828857 -43.91552734 274.11914062 C-68.12353938 276.08832075 -96.07778459 272.97970541 -115.45996094 257.22802734 C-124.9473619 248.05322609 -128.89777896 235.76676861 -129.12792969 222.82958984 C-129.1629407 218.64771836 -129.11068765 214.47149311 -129.02246094 210.29052734 C-125.81898634 209.22270248 -123.54058271 209.16994428 -120.17407227 209.17700195 C-118.37254448 209.17711525 -118.37254448 209.17711525 -116.53462219 209.17723083 C-114.58920784 209.18497276 -114.58920784 209.18497276 -112.60449219 209.19287109 C-111.2635656 209.19473657 -109.92263833 209.19615986 -108.58171082 209.19715881 C-105.05537021 209.20097378 -101.52907089 209.21079536 -98.00274658 209.22186279 C-94.40320392 209.23209884 -90.80365458 209.23666114 -87.20410156 209.24169922 C-80.14353781 209.25241854 -73.08300207 209.26948273 -66.02246094 209.29052734 C-68.65181254 206.51345734 -71.06630717 205.17823814 -74.58105469 203.61865234 C-76.24491211 202.86841797 -76.24491211 202.86841797 -77.94238281 202.10302734 C-80.25227543 201.07697843 -82.56217116 200.05093654 -84.87207031 199.02490234 C-101.8907457 191.35230804 -116.67651503 183.14274118 -124.30761719 165.28271484 C-129.53281132 151.23649406 -130.62350213 134.2326423 -125.28417969 120.01318359 C-118.58990208 105.56763719 -109.7157548 98.00994886 -95.02246094 92.29052734 C-90.44397147 90.82417637 -85.77876822 89.9558605 -81.02246094 89.29052734 C-80.36181641 89.19771484 -79.70117188 89.10490234 -79.02050781 89.00927734 C-72.80700269 88.21937786 -66.65468798 88.14207148 -60.39746094 88.16552734 C-59.34220215 88.16093506 -58.28694336 88.15634277 -57.19970703 88.15161133 C-52.58089785 88.15478989 -48.05549265 88.20088341 -43.47558594 88.83349609 C-36.42677741 89.85096781 -36.42677741 89.85096781 -29.85839844 87.59912109 C-25.91556977 84.38946304 -23.22137782 82.08077925 -22.64746094 76.91552734 C-23.10121094 75.71927734 -23.55496094 74.52302734 -24.02246094 73.29052734 C-24.35117188 72.36369141 -24.67988281 71.43685547 -25.01855469 70.48193359 C-25.71266329 68.52673391 -26.43282087 66.58052395 -27.18261719 64.64599609 C-28.02246094 62.29052734 -28.02246094 62.29052734 -28.02246094 60.29052734 C-28.60898438 60.05205078 -29.19550781 59.81357422 -29.79980469 59.56787109 C-35.71097219 56.1707678 -39.10592278 48.99574335 -40.95996094 42.66552734 C-43.24889671 32.43684559 -41.82272273 23.89310419 -36.54980469 14.73193359 C-27.30926643 1.77770383 -14.84439567 -0.0124958 0 0 Z M4.97753906 103.29052734 C3.65753906 104.28052734 2.33753906 105.27052734 0.97753906 106.29052734 C2.06519676 109.45462246 3.43420409 111.96215068 5.35253906 114.66552734 C11.93925173 125.06354259 12.23079623 136.39890488 11.97753906 148.29052734 C10.74600098 148.30510986 9.51446289 148.31969238 8.24560547 148.3347168 C3.68687548 148.39258387 -0.87135451 148.46981666 -5.4296875 148.55297852 C-7.40454 148.58628263 -9.37948894 148.61429732 -11.35449219 148.63696289 C-14.1895467 148.67040856 -17.02371294 148.7227178 -19.85839844 148.77880859 C-20.74490082 148.78519852 -21.6314032 148.79158844 -22.54476929 148.798172 C-23.77581894 148.82786324 -23.77581894 148.82786324 -25.03173828 148.8581543 C-25.75565765 148.86925735 -26.47957703 148.88036041 -27.22543335 148.89179993 C-29.43894297 149.16543241 -29.43894297 149.16543241 -31.02246094 152.29052734 C-31.18959663 154.91584258 -31.18959663 154.91584258 -31.02246094 157.29052734 C-30.50449951 157.54632568 -29.98653809 157.80212402 -29.45288086 158.06567383 C-10.7456018 167.38505855 3.46415437 176.82207861 10.97753906 197.29052734 C15.66592027 212.23474244 17.50152078 230.34177225 10.54003906 244.79052734 C8.91823166 247.8409488 7.1011578 250.5663517 4.97753906 253.29052734 C6.30368695 256.43045017 7.40186972 257.89145489 10.39941406 259.50927734 C11.08817627 259.88238037 11.77693848 260.2554834 12.48657227 260.63989258 C13.22609131 261.01960205 13.96561035 261.39931152 14.72753906 261.79052734 C15.4896167 262.1863501 16.25169434 262.58217285 17.03686523 262.98999023 C23.84128295 266.41524208 30.51628435 268.66539244 37.97753906 270.29052734 C38.9353125 270.51353516 39.89308594 270.73654297 40.87988281 270.96630859 C55.00220905 273.81402047 70.11085536 273.14631439 83.97753906 269.29052734 C84.63753906 268.63052734 85.29753906 267.97052734 85.97753906 267.29052734 C85.39746094 267.03658203 84.81738281 266.78263672 84.21972656 266.52099609 C82.59866027 265.80676391 80.9802844 265.0864028 79.36425781 264.36083984 C77.47044205 263.51156731 75.56901112 262.67927937 73.66503906 261.85302734 C69.42205226 259.38617455 66.79036704 255.80723434 64.97753906 251.29052734 C64.7336091 248.85954355 64.57567854 246.41924685 64.47753906 243.97802734 C64.26375177 238.69213649 63.58109304 234.28870165 61.97753906 229.29052734 C65.20084725 226.99053232 68.43215478 224.70203789 71.66503906 222.41552734 C72.57705078 221.76455078 73.4890625 221.11357422 74.42871094 220.44287109 C75.75805664 219.50507813 75.75805664 219.50507813 77.11425781 218.54833984 C78.33181763 217.68426514 78.33181763 217.68426514 79.57397461 216.80273438 C81.97682481 215.29097672 84.31398167 214.25645555 86.97753906 213.29052734 C89.36626119 218.19218516 89.32836097 222.99118571 89.36816406 228.31982422 C89.5801944 234.53349092 91.79661229 238.04351189 96.04003906 242.41552734 C99.64510771 244.71663499 103.31408656 246.00404259 107.35644531 247.36083984 C109.71643511 248.19791521 111.85072211 248.96910366 113.97753906 250.29052734 C114.30753906 251.28052734 114.63753906 252.27052734 114.97753906 253.29052734 C120.3385414 249.48908932 125.92025614 245.52695812 129.97753906 240.29052734 C129.97753906 239.30052734 129.97753906 238.31052734 129.97753906 237.29052734 C130.55761719 237.07912109 131.13769531 236.86771484 131.73535156 236.64990234 C141.47283405 230.74634153 147.14547226 212.04986663 149.79003906 201.85302734 C155.23575275 178.65098662 151.87403886 152.59379925 139.73535156 131.93896484 C133.21128579 122.10937241 125.99050496 111.95366764 115.84130859 105.67919922 C115.11847687 105.23120972 114.39564514 104.78322021 113.65090942 104.32165527 C113.0986972 103.98138306 112.54648499 103.64111084 111.97753906 103.29052734 C111.6162793 104.34925049 111.25501953 105.40797363 110.8828125 106.4987793 C102.6005954 130.76942923 94.29998623 155.03363866 85.97753906 179.29052734 C68.15753906 179.29052734 50.33753906 179.29052734 31.97753906 179.29052734 C29.89441406 173.20615234 27.81128906 167.12177734 25.66503906 160.85302734 C24.97917725 158.84982422 24.29331543 156.84662109 23.58666992 154.78271484 C20.57272832 145.96541419 17.58154544 137.14187827 14.66894531 128.29052734 C14.41590134 127.52312729 14.16285736 126.75572723 13.90214539 125.96507263 C12.71197061 122.35348511 11.5284543 118.73992999 10.35522461 115.12280273 C9.93267743 113.83618976 9.50992003 112.5496458 9.08691406 111.26318359 C8.7256543 110.15209229 8.36439453 109.04100098 7.9921875 107.89624023 C7.13603383 105.18079731 7.13603383 105.18079731 4.97753906 103.29052734 Z " fill="#40DFCF" transform="translate(191.0224609375,103.70947265625)"/>
<path d="M0 0 C2.475 1.485 2.475 1.485 5 3 C4.42822637 7.97152322 2.15218092 11.69036183 -0.3125 15.9375 C-0.70373047 16.62779297 -1.09496094 17.31808594 -1.49804688 18.02929688 C-3.84489092 22.13530096 -6.33042529 26.09643424 -9 30 C-15.75052102 28.22089072 -22.40620337 26.29561809 -29 24 C-25.61682513 23.02408417 -23.4342662 23.14143345 -20 24 C-19.67 22.35 -19.34 20.7 -19 19 C-17.35 19 -15.7 19 -14 19 C-14.66 20.98 -15.32 22.96 -16 25 C-15.1028125 24.7525 -15.1028125 24.7525 -14.1875 24.5 C-11.7513839 23.94317346 -9.48770614 24 -7 24 C-7 23.01 -7 22.02 -7 21 C-6.34 21 -5.68 21 -5 21 C-5 20.01 -5 19.02 -5 18 C-4.34 18 -3.68 18 -3 18 C-3 17.01 -3 16.02 -3 15 C-2.34 15 -1.68 15 -1 15 C-1 13.68 -1 12.36 -1 11 C-0.34 11 0.32 11 1 11 C1 9.68 1 8.36 1 7 C1.66 7 2.32 7 3 7 C2.65213292 5.02463255 2.65213292 5.02463255 2 3 C1.34 2.67 0.68 2.34 0 2 C0 1.34 0 0.68 0 0 Z " fill="#53D5C6" transform="translate(382,341)"/>
<path d="M0 0 C1.02601318 0.04543945 1.02601318 0.04543945 2.07275391 0.09179688 C21.16696323 0.92658659 39.91544423 1.07518624 59 0 C59.66 1.65 60.32 3.3 61 5 C60.50371094 4.66226562 60.00742188 4.32453125 59.49609375 3.9765625 C55.9769042 2.59972778 52.74536643 3.04990923 49.0625 3.375 C47.51580244 3.4855834 45.96892215 3.59363874 44.421875 3.69921875 C43.66326172 3.75255371 42.90464844 3.80588867 42.12304688 3.86083984 C28.32198326 4.76546338 13.55040534 3.87720273 0 1 C0 0.67 0 0.34 0 0 Z " fill="#5BDDCF" transform="translate(105,374)"/>
<path d="M0 0 C0.33 0 0.66 0 1 0 C1.34933594 1.21558594 1.69867188 2.43117187 2.05859375 3.68359375 C2.5180586 5.26827863 2.9777033 6.85291137 3.4375 8.4375 C3.78264648 9.64116211 3.78264648 9.64116211 4.13476562 10.86914062 C4.98705862 14.74053247 4.98705862 14.74053247 7 18 C7.04063832 19.66617115 7.042721 21.33388095 7 23 C7.66 23 8.32 23 9 23 C9.3403125 24.7325 9.3403125 24.7325 9.6875 26.5 C10.88700162 31.97217894 12.59648296 37.26596933 14.32299805 42.58984375 C16 47.80189315 16 47.80189315 16 50 C16.66 50 17.32 50 18 50 C18.625 52.3125 18.625 52.3125 19 55 C18.34 55.99 17.68 56.98 17 58 C14.59765625 50.79296875 12.1953125 43.5859375 9.79296875 36.37890625 C9.5320343 35.59666687 9.27109985 34.81442749 9.0022583 34.00848389 C8.47350716 32.42108854 7.94612854 30.83323537 7.42010498 29.24493408 C6.05453995 25.12771836 4.66361623 21.02191484 3.22753906 16.92871094 C2.94431793 16.11062958 2.6610968 15.29254822 2.36929321 14.44967651 C1.82855822 12.88980365 1.27961872 11.33274308 0.72128296 9.77908325 C-0.55723774 6.06315382 -1.18898783 3.74841442 0 0 Z " fill="#60D5CA" transform="translate(204,223)"/>
<path d="M0 0 C19.47 0 38.94 0 59 0 C59 0.33 59 0.66 59 1 C58.30286896 1.02283554 57.60573792 1.04567108 56.88748169 1.06919861 C50.32454159 1.28499992 43.76176728 1.5052388 37.19914436 1.73049068 C33.82505943 1.84614347 30.45093442 1.96006649 27.07666016 2.07006836 C23.19938337 2.19732038 19.32234872 2.33048571 15.4453125 2.46484375 C14.23070343 2.50343002 13.01609436 2.5420163 11.76467896 2.58177185 C10.64366791 2.62173782 9.52265686 2.6617038 8.36767578 2.70288086 C6.88208664 2.75284462 6.88208664 2.75284462 5.3664856 2.80381775 C2.98258103 2.85379699 2.98258103 2.85379699 1 4 C0.67 2.68 0.34 1.36 0 0 Z " fill="#65D6CF" transform="translate(66,313)"/>
<path d="M0 0 C0.66 0 1.32 0 2 0 C2 0.99 2 1.98 2 3 C3.65 3.33 5.3 3.66 7 4 C7.66 6.31 8.32 8.62 9 11 C9.61875 10.649375 10.2375 10.29875 10.875 9.9375 C11.926875 9.4734375 11.926875 9.4734375 13 9 C13.66 9.33 14.32 9.66 15 10 C15 10.99 15 11.98 15 13 C14.34 13 13.68 13 13 13 C16.17539556 16.42578949 16.17539556 16.42578949 20 19 C20 19.66 20 20.32 20 21 C10.99740367 17.85146455 4.38833966 10.29482242 0 2 C0 1.34 0 0.68 0 0 Z " fill="#53D6C7" transform="translate(69,272)"/>
<path d="M0 0 C1.32 0.33 2.64 0.66 4 1 C4 1.66 4 2.32 4 3 C4.66 3 5.32 3 6 3 C6.33 3.99 6.66 4.98 7 6 C10.00847418 7.22520264 10.00847418 7.22520264 13 8 C13 8.66 13 9.32 13 10 C15.31 10.33 17.62 10.66 20 11 C20.33 12.32 20.66 13.64 21 15 C4.64504284 9.31946144 4.64504284 9.31946144 0 2 C0 1.34 0 0.68 0 0 Z " fill="#52D8C9" transform="translate(257,357)"/>
<path d="M0 0 C2.52870624 3.79305936 3.43181588 7.51155341 4.625 11.875 C4.85445313 12.67808594 5.08390625 13.48117188 5.3203125 14.30859375 C6.42157818 18.28757154 7.32084607 21.82900107 7 26 C6.34 26 5.68 26 5 26 C3.74335022 23.09399739 3 21.20395416 3 18 C2.34 18 1.68 18 1 18 C1.01160156 17.30132812 1.02320313 16.60265625 1.03515625 15.8828125 C1.04417969 14.97273437 1.05320312 14.06265625 1.0625 13.125 C1.07410156 12.22007812 1.08570313 11.31515625 1.09765625 10.3828125 C1.16249257 7.9831415 1.16249257 7.9831415 0 6 C-0.039992 4.00039988 -0.04346799 1.99952758 0 0 Z " fill="#50D7C6" transform="translate(369,236)"/>
<path d="M0 0 C0.99 0 1.98 0 3 0 C1.60152532 6.88642833 -0.35014777 13.41826697 -2.625 20.0625 C-2.94984375 21.02349609 -3.2746875 21.98449219 -3.609375 22.97460938 C-4.40211192 25.31784644 -5.19904576 27.65956176 -6 30 C-6.33 30 -6.66 30 -7 30 C-7.45496035 24.23716896 -5.79099852 19.39431697 -4 14 C-3.34 14 -2.68 14 -2 14 C-1.93941406 13.40832031 -1.87882812 12.81664062 -1.81640625 12.20703125 C-1.37987629 8.09021792 -0.91328654 4.04455467 0 0 Z " fill="#59D5C5" transform="translate(297,215)"/>
<path d="M0 0 C6.80203375 -0.37634203 11.75690073 0.22528921 18 3 C18 3.66 18 4.32 18 5 C18.66 5 19.32 5 20 5 C20 8.63 20 12.26 20 16 C19.67 16 19.34 16 19 16 C18.34 12.7 17.68 9.4 17 6 C11.41319959 4.03707012 5.71747449 2.52601632 0 1 C0 0.67 0 0.34 0 0 Z " fill="#5BD4C7" transform="translate(213,405)"/>
<path d="M0 0 C3.62490892 5.43736338 4.54548349 11.56329476 4 18 C3.1307043 21.70832502 2.10699852 25.35612988 1 29 C0.67 29 0.34 29 0 29 C-0.66 26.36 -1.32 23.72 -2 21 C-0.68 20.67 0.64 20.34 2 20 C2 17.69 2 15.38 2 13 C1.34 12.67 0.68 12.34 0 12 C0 8.04 0 4.08 0 0 Z " fill="#5AD1C7" transform="translate(347,123)"/>
<path d="M0 0 C2.26452326 3.39678489 3.6716173 6.9010556 5.125 10.6875 C5.40214844 11.37005859 5.67929687 12.05261719 5.96484375 12.75585938 C7.86543707 17.71331829 8.27383345 21.6959651 8 27 C7.34 26.67 6.68 26.34 6 26 C5.4375 23.671875 5.4375 23.671875 5 20.75 C4.41768293 16.90254795 3.69821794 13.52130485 2 10 C1.34 9.67 0.68 9.34 0 9 C0 6.03 0 3.06 0 0 Z " fill="#5AD0BD" transform="translate(331,386)"/>
<path d="M0 0 C0.66 0.99 1.32 1.98 2 3 C1.01 3.66 0.02 4.32 -1 5 C-1.2502157 8.08365871 -1.2502157 8.08365871 -1 11 C-1.8971875 11.2784375 -1.8971875 11.2784375 -2.8125 11.5625 C-6.09981799 13.72273753 -6.64854687 16.35107655 -8 20 C-9.51123897 15.65273466 -8.14842835 13.32089413 -6.2578125 9.328125 C-4.44507486 5.97287149 -2.31795865 3.0262238 0 0 Z " fill="#54D6C3" transform="translate(159,113)"/>
<path d="M0 0 C2.35953094 2.35953094 2.49141413 3.77895617 3 7 C3.66 7 4.32 7 5 7 C5.33 7.66 5.66 8.32 6 9 C13.59 9.33 21.18 9.66 29 10 C29 10.33 29 10.66 29 11 C24.89596637 11.08694042 20.79216871 11.14037149 16.6875 11.1875 C14.93663086 11.22520508 14.93663086 11.22520508 13.15039062 11.26367188 C12.03212891 11.27333984 10.91386719 11.28300781 9.76171875 11.29296875 C8.73006592 11.3086792 7.69841309 11.32438965 6.63549805 11.34057617 C4 11 4 11 2.171875 9.609375 C0.04893846 6.69387549 0.28894299 3.52510454 0 0 Z " fill="#5CD1C2" transform="translate(233,423)"/>
<path d="M0 0 C1.32 0 2.64 0 4 0 C4.33 0.99 4.66 1.98 5 3 C-1.40123298 9.56306191 -1.40123298 9.56306191 -4.3125 11.6875 C-6.29811331 13.23186591 -7.04735423 14.69777272 -8 17 C-8.36627907 11.50581395 -8.36627907 11.50581395 -6.6875 9.1875 C-5 8 -5 8 -2 7 C-2 6.01 -2 5.02 -2 4 C-1.34 3.34 -0.68 2.68 0 2 C0 1.34 0 0.68 0 0 Z " fill="#55D8CA" transform="translate(338,369)"/>
<path d="M0 0 C0 3 0 3 -2.0625 6 C-2.701875 6.99 -3.34125 7.98 -4 9 C-3.0022242 11.99332739 -2.2477975 12.94766315 0 15 C-2.31 15 -4.62 15 -7 15 C-6.85769192 13.58297487 -6.71099254 12.1663904 -6.5625 10.75 C-6.48128906 9.96109375 -6.40007812 9.1721875 -6.31640625 8.359375 C-6.01894016 6.14123277 -5.74146009 4.11316127 -5 2 C-2.4375 0.75 -2.4375 0.75 0 0 Z " fill="#53D6C5" transform="translate(201,348)"/>
<path d="M0 0 C4.62 0 9.24 0 14 0 C14 0.33 14 0.66 14 1 C6.575 2.485 6.575 2.485 -1 4 C-1.66 5.98 -2.32 7.96 -3 10 C-3.66 11.32 -4.32 12.64 -5 14 C-4.67 10.37 -4.34 6.74 -4 3 C-2.68 2.67 -1.36 2.34 0 2 C0 1.34 0 0.68 0 0 Z " fill="#5DD2C7" transform="translate(379,299)"/>
<path d="M0 0 C9.66008518 0.60375532 15.64414146 6.1078659 22 13 C21.67 13.66 21.34 14.32 21 15 C19.87105124 14.06725891 18.74699124 13.12859878 17.625 12.1875 C16.99851562 11.66542969 16.37203125 11.14335938 15.7265625 10.60546875 C14 9 14 9 12 6 C8.94570927 4.78715124 8.94570927 4.78715124 6 4 C6 3.34 6 2.68 6 2 C4.02 2 2.04 2 0 2 C0 1.34 0 0.68 0 0 Z " fill="#59CFC0" transform="translate(323,105)"/>
<path d="M0 0 C1.33332095 2.6666419 0.67102033 4.16680303 0 7 C-0.66 7 -1.32 7 -2 7 C-1.9175 7.845625 -1.835 8.69125 -1.75 9.5625 C-2.07537023 14.03634062 -3.59932129 16.24893952 -6 20 C-7.35102132 16.31933295 -6.62773517 14.16158354 -5.25 10.5625 C-4.73179688 9.17224609 -4.73179688 9.17224609 -4.203125 7.75390625 C-3.00269413 5.00616675 -1.59962682 2.53274247 0 0 Z " fill="#56D3C5" transform="translate(71,214)"/>
<path d="M0 0 C1.98 0 3.96 0 6 0 C6 0.66 6 1.32 6 2 C10.455 1.505 10.455 1.505 15 1 C14.34 2.65 13.68 4.3 13 6 C8.14036821 5.39254603 4.2594482 3.27241033 0 1 C0 0.67 0 0.34 0 0 Z " fill="#50D8C7" transform="translate(96,297)"/>
<path d="M0 0 C0.33 0.66 0.66 1.32 1 2 C0.0625 4.125 0.0625 4.125 -1 6 C-0.01 7.485 -0.01 7.485 1 9 C-2 9 -2 9 -5 8 C-5.061875 8.61875 -5.12375 9.2375 -5.1875 9.875 C-6 12 -6 12 -8.5625 13.25 C-9.366875 13.4975 -10.17125 13.745 -11 14 C-10.360625 13.236875 -9.72125 12.47375 -9.0625 11.6875 C-6.85767219 9.11753287 -6.85767219 9.11753287 -6 6 C-4.37446717 4.29319053 -2.70884005 2.62339805 -1 1 C-0.67 0.67 -0.34 0.34 0 0 Z " fill="#55D7C9" transform="translate(327,335)"/>
<path d="M0 0 C3.50439751 0.55889098 4.84353822 1.59738347 7 4.375 C8.74863183 6.55413256 10.07730826 8.05492955 12.375 9.6875 C12.91125 10.120625 13.4475 10.55375 14 11 C14 12.32 14 13.64 14 15 C14.66 15.33 15.32 15.66 16 16 C15.01 16 14.02 16 13 16 C11.38671875 14.27734375 11.38671875 14.27734375 9.6875 11.9375 C6.60994238 7.7991672 3.3897267 3.88578426 0 0 Z " fill="#61D3C6" transform="translate(311,212)"/>
<path d="M0 0 C-1.423125 0.928125 -1.423125 0.928125 -2.875 1.875 C-5.94445109 3.81970969 -5.94445109 3.81970969 -8 6 C-8.33 5.67 -8.66 5.34 -9 5 C-10.68608966 4.92794489 -12.37500659 4.91613932 -14.0625 4.9375 C-14.98160156 4.94652344 -15.90070313 4.95554688 -16.84765625 4.96484375 C-17.55792969 4.97644531 -18.26820313 4.98804688 -19 5 C-19 4.01 -19 3.02 -19 2 C-18.30261719 2.20625 -17.60523438 2.4125 -16.88671875 2.625 C-13.29694155 3.091331 -11.18135654 2.27221415 -7.8125 1 C-2.20436927 -1.10218464 -2.20436927 -1.10218464 0 0 Z " fill="#54D2C2" transform="translate(367,198)"/>
<path d="M0 0 C4.29 0.33 8.58 0.66 13 1 C13 1.66 13 2.32 13 3 C13.99 2.67 14.98 2.34 16 2 C18.6875 2.4375 18.6875 2.4375 21 3 C20.34 3.66 19.68 4.32 19 5 C16.171875 4.828125 16.171875 4.828125 12.75 4.25 C11.63109375 4.06953125 10.5121875 3.8890625 9.359375 3.703125 C6.12601382 3.02637498 3.10779608 2.11127254 0 1 C0 0.67 0 0.34 0 0 Z " fill="#50D9CA" transform="translate(92,370)"/>
<path d="M0 0 C1.32 0 2.64 0 4 0 C4 0.66 4 1.32 4 2 C4.66 2 5.32 2 6 2 C6.33 1.34 6.66 0.68 7 0 C9.31 0 11.62 0 14 0 C11.38485683 2.12038635 8.80362384 4.13091744 6 6 C3.97945196 4.35830472 1.97956942 2.69088222 0 1 C0 0.67 0 0.34 0 0 Z " fill="#59D5C4" transform="translate(333,451)"/>
<path d="M0 0 C1.21386936 3.64160808 0.6674695 4.33165469 -0.9375 7.6875 C-1.31777344 8.49574219 -1.69804687 9.30398438 -2.08984375 10.13671875 C-2.39019531 10.75160156 -2.69054687 11.36648438 -3 12 C-3.99 11.67 -4.98 11.34 -6 11 C-5.1875 8.0625 -5.1875 8.0625 -4 5 C-3.01 4.67 -2.02 4.34 -1 4 C-0.26676204 1.98491642 -0.26676204 1.98491642 0 0 Z " fill="#52D4C3" transform="translate(280,272)"/>
<path d="M0 0 C4.98748002 0.4749981 8.06964437 1.89227695 12 5 C12.33 5.99 12.66 6.98 13 8 C12.01 8.66 11.02 9.32 10 10 C10 8.35 10 6.7 10 5 C9.0925 4.9175 8.185 4.835 7.25 4.75 C3.59922161 3.90751268 2.36615417 2.82118382 0 0 Z " fill="#5FCFC3" transform="translate(351,431)"/>
<path d="M0 0 C0.33 0 0.66 0 1 0 C1.33 2.64 1.66 5.28 2 8 C2.99 8 3.98 8 5 8 C5.33 9.32 5.66 10.64 6 12 C3.20701022 11.09416548 1.25319559 10.22869279 -0.9375 8.25 C-2 6 -2 6 -1.1875 2.75 C-0.795625 1.8425 -0.40375 0.935 0 0 Z " fill="#56D4C2" transform="translate(164,398)"/>
<path d="M0 0 C2.95409701 1.37154504 5.44008376 2.98863724 8 5 C9.65 4.01 11.3 3.02 13 2 C13 4 13 4 11.375 5.6875 C9 7 9 7 5.9375 7.0625 C3 6 3 6 1.125 2.9375 C0.75375 1.968125 0.3825 0.99875 0 0 Z " fill="#57D0C6" transform="translate(299,351)"/>
<path d="M0 0 C0.99 3.63 1.98 7.26 3 11 C-0.39417765 7.87378374 -2.6062718 5.43458973 -4 1 C-2 0 -2 0 0 0 Z " fill="#48DBC7" transform="translate(310,410)"/>
<path d="M0 0 C0.66 1.65 1.32 3.3 2 5 C1.52046875 4.67257812 1.0409375 4.34515625 0.546875 4.0078125 C-3.20479418 2.52325629 -6.75680741 2.78891127 -10.75 2.875 C-11.93916016 2.88853516 -11.93916016 2.88853516 -13.15234375 2.90234375 C-15.10169281 2.92582988 -17.05088575 2.96169863 -19 3 C-19 2.67 -19 2.34 -19 2 C-16.20849551 1.66525856 -13.41681356 1.33214502 -10.625 1 C-9.43390625 0.85691406 -9.43390625 0.85691406 -8.21875 0.7109375 C-2.2265625 0 -2.2265625 0 0 0 Z " fill="#65D5C6" transform="translate(164,374)"/>
<path d="M0 0 C0.99 0.495 0.99 0.495 2 1 C2 1.99 2 2.98 2 4 C2.66 4 3.32 4 4 4 C4 8.62 4 13.24 4 18 C3.67 18 3.34 18 3 18 C2.01 12.06 1.02 6.12 0 0 Z " fill="#61D1C6" transform="translate(339,256)"/>
<path d="M0 0 C0.66 0.33 1.32 0.66 2 1 C1.67 1.66 1.34 2.32 1 3 C0.34 3 -0.32 3 -1 3 C-1.12375 3.61875 -1.2475 4.2375 -1.375 4.875 C-2 7 -2 7 -4 9 C-6.125 9.625 -6.125 9.625 -8 10 C-6.34908222 5.70761377 -3.26245434 3.1206085 0 0 Z " fill="#56D3C7" transform="translate(80,204)"/>
<path d="M0 0 C1.15518918 0.90484792 2.29885406 1.8244206 3.4375 2.75 C4.07558594 3.26046875 4.71367187 3.7709375 5.37109375 4.296875 C7.18810554 6.19667629 7.60423197 7.43586908 8 10 C7.34 10 6.68 10 6 10 C6 9.01 6 8.02 6 7 C4.35 6.67 2.7 6.34 1 6 C0.67 4.02 0.34 2.04 0 0 Z " fill="#55D5C4" transform="translate(336,188)"/>
<path d="M0 0 C0.33 0.66 0.66 1.32 1 2 C4.02934491 2.65772428 4.02934491 2.65772428 7 3 C6.2575 3.5775 5.515 4.155 4.75 4.75 C2.33912357 6.72253526 0.15957299 8.76044282 -2 11 C-1.40072174 7.64404172 -0.15377564 5.62198774 2 3 C1.34 3 0.68 3 0 3 C0 2.01 0 1.02 0 0 Z " fill="#57D3C7" transform="translate(345,360)"/>
<path d="M0 0 C0.66 0.33 1.32 0.66 2 1 C-1.17320782 4.53586014 -3.16743695 6.58578031 -8 7 C-5.42215154 4.35247996 -3.08351902 2.05567935 0 0 Z " fill="#55D4C9" transform="translate(263,325)"/>
<path d="M0 0 C0.66 0.33 1.32 0.66 2 1 C1.01 3.97 0.02 6.94 -1 10 C-3 6 -3 6 -3 3 C-1.5 1.3125 -1.5 1.3125 0 0 Z " fill="#60DDC8" transform="translate(287,250)"/>
<path d="M0 0 C2.97 1.65 5.94 3.3 9 5 C5.06329512 6.31223496 2.87511856 5.24296256 -1 4 C-1 1 -1 1 0 0 Z " fill="#4FD3C5" transform="translate(342,425)"/>
<path d="M0 0 C1.60597325 0.45196245 3.20972508 0.91182327 4.8125 1.375 C6.15248047 1.75785156 6.15248047 1.75785156 7.51953125 2.1484375 C10 3 10 3 13 5 C7.73946963 5.31563182 4.55426184 4.66590937 0 2 C0 1.34 0 0.68 0 0 Z " fill="#5CD0C4" transform="translate(211,368)"/>
<path d="M0 0 C2.31 0.66 4.62 1.32 7 2 C7.33 4.31 7.66 6.62 8 9 C7.7525 8.38125 7.505 7.7625 7.25 7.125 C5.76718549 4.60421533 4.59136042 4.2147002 2 3 C1.34 2.01 0.68 1.02 0 0 Z " fill="#5CD6C7" transform="translate(157,159)"/>
<path d="M0 0 C-3.96926035 2.2227858 -8.63843451 4.47813386 -13.21875 3.55078125 C-13.8065625 3.36902344 -14.394375 3.18726563 -15 3 C-14.16855469 2.69255859 -14.16855469 2.69255859 -13.3203125 2.37890625 C-12.59585937 2.10949219 -11.87140625 1.84007812 -11.125 1.5625 C-10.40570313 1.29566406 -9.68640625 1.02882813 -8.9453125 0.75390625 C-5.27710123 -0.66770977 -3.95235901 -0.93608503 0 0 Z " fill="#62D3CB" transform="translate(291,404)"/>
<path d="M0 0 C3.77545388 1.09068668 6.47043472 1.9083091 9 5 C6.69 4.67 4.38 4.34 2 4 C2 3.34 2 2.68 2 2 C1.34 2 0.68 2 0 2 C0 1.34 0 0.68 0 0 Z " fill="#5CD6C4" transform="translate(201,363)"/>
<path d="M0 0 C1.98 0.99 1.98 0.99 4 2 C4 3.32 4 4.64 4 6 C4.66 6.33 5.32 6.66 6 7 C5.01 7 4.02 7 3 7 C0.64276511 4.46815512 0 3.52809907 0 0 Z " fill="#55DACC" transform="translate(321,221)"/>
<path d="M0 0 C3.0916909 2.52956528 3.90931332 5.22454612 5 9 C4.34 9 3.68 9 3 9 C0.56839395 5.63316085 0 4.26649636 0 0 Z " fill="#5AD1C2" transform="translate(380,208)"/>
<path d="M0 0 C1.32 0.33 2.64 0.66 4 1 C3.67 1.99 3.34 2.98 3 4 C2.96125079 5.66621616 2.9549714 7.33394172 3 9 C0.23776722 6.23776722 0.42143709 3.79293383 0 0 Z " fill="#58D6C5" transform="translate(198,208)"/>
<path d="M0 0 C0.99 0.33 1.98 0.66 3 1 C3 1.99 3 2.98 3 4 C1.02 4.99 1.02 4.99 -1 6 C-1.33 4.68 -1.66 3.36 -2 2 C-1.34 2 -0.68 2 0 2 C0 1.34 0 0.68 0 0 Z " fill="#4CD9C7" transform="translate(358,438)"/>
<path d="M0 0 C4.83256305 0.41421969 6.82679218 2.46413986 10 6 C6.40992874 4.66654496 3.20429093 3.1056769 0 1 C0 0.67 0 0.34 0 0 Z " fill="#56D5C2" transform="translate(172,411)"/>
<path d="M0 0 C1.1446875 0.2784375 1.1446875 0.2784375 2.3125 0.5625 C5.08967375 1.22819173 5.08967375 1.22819173 8 0 C8 0.66 8 1.32 8 2 C7.34 2 6.68 2 6 2 C6 2.99 6 3.98 6 5 C2.83884224 3.63016497 2.0072908 3.0109362 0 0 Z " fill="#57D6C7" transform="translate(74,358)"/>
<path d="M0 0 C0.66 0.33 1.32 0.66 2 1 C2 2.65 2 4.3 2 6 C1.34 6 0.68 6 0 6 C0 6.66 0 7.32 0 8 C-0.66 8 -1.32 8 -2 8 C-1.34 5.36 -0.68 2.72 0 0 Z " fill="#57D3C5" transform="translate(339,309)"/>
<path d="M0 0 C4.19115285 0.58210456 5.37542083 1.28156562 9 4 C5.7 3.34 2.4 2.68 -1 2 C-0.67 1.34 -0.34 0.68 0 0 Z " fill="#5ED4C8" transform="translate(204,401)"/>
<path d="" fill="#FFFFFF" transform="translate(0,0)"/>
<path d="" fill="#FFFFFF" transform="translate(0,0)"/>
<path d="" fill="#FFFFFF" transform="translate(0,0)"/>
<path d="" fill="#FFFFFF" transform="translate(0,0)"/>
<path d="" fill="#FFFFFF" transform="translate(0,0)"/>
<path d="" fill="#FFFFFF" transform="translate(0,0)"/>
<path d="" fill="#FFFFFF" transform="translate(0,0)"/>
<path d="" fill="#FFFFFF" transform="translate(0,0)"/>
<path d="" fill="#FFFFFF" transform="translate(0,0)"/>
<path d="" fill="#FFFFFF" transform="translate(0,0)"/>
<path d="" fill="#FFFFFF" transform="translate(0,0)"/>
<path d="" fill="#FFFFFF" transform="translate(0,0)"/>
<path d="" fill="#FFFFFF" transform="translate(0,0)"/>
<path d="" fill="#FFFFFF" transform="translate(0,0)"/>
<path d="" fill="#FFFFFF" transform="translate(0,0)"/>
<path d="" fill="#FFFFFF" transform="translate(0,0)"/>
<path d="" fill="#FFFFFF" transform="translate(0,0)"/>
<path d="" fill="#FFFFFF" transform="translate(0,0)"/>
<path d="" fill="#FFFFFF" transform="translate(0,0)"/>
<path d="" fill="#FFFFFF" transform="translate(0,0)"/>
<path d="" fill="#FFFFFF" transform="translate(0,0)"/>
<path d="" fill="#FFFFFF" transform="translate(0,0)"/>
<path d="" fill="#FFFFFF" transform="translate(0,0)"/>
<path d="" fill="#FFFFFF" transform="translate(0,0)"/>
<path d="" fill="#FFFFFF" transform="translate(0,0)"/>
<path d="" fill="#FFFFFF" transform="translate(0,0)"/>
<path d="" fill="#FFFFFF" transform="translate(0,0)"/>
<path d="" fill="#FFFFFF" transform="translate(0,0)"/>
<path d="" fill="#FFFFFF" transform="translate(0,0)"/>
<path d="" fill="#FFFFFF" transform="translate(0,0)"/>
<path d="" fill="#FFFFFF" transform="translate(0,0)"/>
<path d="" fill="#FFFFFF" transform="translate(0,0)"/>
<path d="" fill="#FFFFFF" transform="translate(0,0)"/>
<path d="" fill="#FFFFFF" transform="translate(0,0)"/>
<path d="" fill="#FFFFFF" transform="translate(0,0)"/>
<path d="" fill="#FFFFFF" transform="translate(0,0)"/>
<path d="" fill="#FFFFFF" transform="translate(0,0)"/>
<path d="" fill="#FFFFFF" transform="translate(0,0)"/>
<path d="" fill="#FFFFFF" transform="translate(0,0)"/>
<path d="" fill="#FFFFFF" transform="translate(0,0)"/>
<path d="" fill="#FFFFFF" transform="translate(0,0)"/>
<path d="" fill="#FFFFFF" transform="translate(0,0)"/>
<path d="" fill="#FFFFFF" transform="translate(0,0)"/>
<path d="" fill="#FFFFFF" transform="translate(0,0)"/>
<path d="" fill="#FFFFFF" transform="translate(0,0)"/>
<path d="" fill="#FFFFFF" transform="translate(0,0)"/>
</svg>
